<mxfile host="app.diagrams.net" modified="2021-06-19T13:27:19.749Z" agent="5.0 (Windows NT 10.0; Win64; x64) AppleWebKit/537.36 (KHTML, like Gecko) Chrome/91.0.4472.106 Safari/537.36" etag="hMJJS7A0Hk-hkPRkJjDm" version="14.8.0" type="github" pages="7">
  <diagram id="p11bRE8ngP6M-khqaFyY" name="操作系统组成">
    <mxGraphModel dx="1422" dy="796" grid="1" gridSize="10" guides="1" tooltips="1" connect="1" arrows="1" fold="1" page="1" pageScale="1" pageWidth="827" pageHeight="1169" background="none" math="0" shadow="0">
      <root>
        <mxCell id="0" />
        <mxCell id="1" parent="0" />
        <mxCell id="h38YhSIRXOhSa6jcoTgB-14" value="" style="group;sketch=1;" parent="1" vertex="1" connectable="0">
          <mxGeometry x="30" y="20" width="310" height="210" as="geometry" />
        </mxCell>
        <mxCell id="h38YhSIRXOhSa6jcoTgB-1" value="应用程序1" style="rounded=1;whiteSpace=wrap;html=1;fillColor=#fff2cc;strokeColor=#2D43D6;shadow=0;sketch=1;" parent="h38YhSIRXOhSa6jcoTgB-14" vertex="1">
          <mxGeometry width="90" height="40" as="geometry" />
        </mxCell>
        <mxCell id="h38YhSIRXOhSa6jcoTgB-2" value="操作系统" style="whiteSpace=wrap;html=1;rounded=1;shadow=0;strokeColor=#2D43D6;fillColor=#fff2cc;sketch=1;" parent="h38YhSIRXOhSa6jcoTgB-14" vertex="1">
          <mxGeometry y="80" width="310" height="40" as="geometry" />
        </mxCell>
        <mxCell id="h38YhSIRXOhSa6jcoTgB-3" value="" style="edgeStyle=orthogonalEdgeStyle;curved=0;rounded=1;orthogonalLoop=1;jettySize=auto;html=1;sketch=1;" parent="h38YhSIRXOhSa6jcoTgB-14" source="h38YhSIRXOhSa6jcoTgB-1" target="h38YhSIRXOhSa6jcoTgB-2" edge="1">
          <mxGeometry relative="1" as="geometry" />
        </mxCell>
        <mxCell id="h38YhSIRXOhSa6jcoTgB-7" value="" style="edgeStyle=orthogonalEdgeStyle;curved=0;rounded=1;orthogonalLoop=1;jettySize=auto;html=1;exitX=0.5;exitY=1;exitDx=0;exitDy=0;sketch=1;" parent="h38YhSIRXOhSa6jcoTgB-14" source="h38YhSIRXOhSa6jcoTgB-2" target="h38YhSIRXOhSa6jcoTgB-6" edge="1">
          <mxGeometry relative="1" as="geometry" />
        </mxCell>
        <mxCell id="h38YhSIRXOhSa6jcoTgB-4" value="CPU" style="rounded=1;whiteSpace=wrap;html=1;shadow=0;strokeColor=#2D43D6;fillColor=#fff2cc;sketch=1;" parent="h38YhSIRXOhSa6jcoTgB-14" vertex="1">
          <mxGeometry y="170" width="80" height="40" as="geometry" />
        </mxCell>
        <mxCell id="h38YhSIRXOhSa6jcoTgB-5" value="" style="edgeStyle=orthogonalEdgeStyle;curved=0;rounded=1;orthogonalLoop=1;jettySize=auto;html=1;sketch=1;" parent="h38YhSIRXOhSa6jcoTgB-14" source="h38YhSIRXOhSa6jcoTgB-2" target="h38YhSIRXOhSa6jcoTgB-4" edge="1">
          <mxGeometry relative="1" as="geometry" />
        </mxCell>
        <mxCell id="h38YhSIRXOhSa6jcoTgB-9" value="" style="edgeStyle=orthogonalEdgeStyle;curved=0;rounded=1;orthogonalLoop=1;jettySize=auto;html=1;exitX=0.5;exitY=1;exitDx=0;exitDy=0;sketch=1;" parent="h38YhSIRXOhSa6jcoTgB-14" source="h38YhSIRXOhSa6jcoTgB-2" target="h38YhSIRXOhSa6jcoTgB-8" edge="1">
          <mxGeometry relative="1" as="geometry" />
        </mxCell>
        <mxCell id="h38YhSIRXOhSa6jcoTgB-6" value="内存" style="rounded=1;whiteSpace=wrap;html=1;shadow=0;strokeColor=#2D43D6;fillColor=#fff2cc;sketch=1;" parent="h38YhSIRXOhSa6jcoTgB-14" vertex="1">
          <mxGeometry x="115" y="170" width="80" height="40" as="geometry" />
        </mxCell>
        <mxCell id="h38YhSIRXOhSa6jcoTgB-8" value="外设" style="rounded=1;whiteSpace=wrap;html=1;shadow=0;strokeColor=#2D43D6;fillColor=#fff2cc;sketch=1;" parent="h38YhSIRXOhSa6jcoTgB-14" vertex="1">
          <mxGeometry x="230" y="170" width="80" height="40" as="geometry" />
        </mxCell>
        <mxCell id="h38YhSIRXOhSa6jcoTgB-13" value="" style="edgeStyle=orthogonalEdgeStyle;curved=0;rounded=1;orthogonalLoop=1;jettySize=auto;html=1;entryX=0.5;entryY=0;entryDx=0;entryDy=0;exitX=0.5;exitY=1;exitDx=0;exitDy=0;sketch=1;" parent="h38YhSIRXOhSa6jcoTgB-14" source="h38YhSIRXOhSa6jcoTgB-12" target="h38YhSIRXOhSa6jcoTgB-2" edge="1">
          <mxGeometry relative="1" as="geometry" />
        </mxCell>
        <mxCell id="h38YhSIRXOhSa6jcoTgB-10" value="应用程序2" style="rounded=1;whiteSpace=wrap;html=1;shadow=0;strokeColor=#2D43D6;fillColor=#fff2cc;sketch=1;" parent="h38YhSIRXOhSa6jcoTgB-14" vertex="1">
          <mxGeometry x="110" width="90" height="40" as="geometry" />
        </mxCell>
        <mxCell id="h38YhSIRXOhSa6jcoTgB-11" value="" style="edgeStyle=orthogonalEdgeStyle;curved=0;rounded=1;orthogonalLoop=1;jettySize=auto;html=1;entryX=0.5;entryY=0;entryDx=0;entryDy=0;sketch=1;" parent="h38YhSIRXOhSa6jcoTgB-14" source="h38YhSIRXOhSa6jcoTgB-10" target="h38YhSIRXOhSa6jcoTgB-2" edge="1">
          <mxGeometry relative="1" as="geometry">
            <mxPoint x="160" y="80" as="targetPoint" />
          </mxGeometry>
        </mxCell>
        <mxCell id="h38YhSIRXOhSa6jcoTgB-12" value="应用程序3" style="rounded=1;whiteSpace=wrap;html=1;shadow=0;strokeColor=#2D43D6;fillColor=#fff2cc;sketch=1;" parent="h38YhSIRXOhSa6jcoTgB-14" vertex="1">
          <mxGeometry x="220" width="90" height="40" as="geometry" />
        </mxCell>
        <mxCell id="h38YhSIRXOhSa6jcoTgB-39" value="" style="group;sketch=1;" parent="1" vertex="1" connectable="0">
          <mxGeometry x="600" y="40" width="450" height="240" as="geometry" />
        </mxCell>
        <mxCell id="h38YhSIRXOhSa6jcoTgB-18" value="L2高速缓存&lt;br&gt;(SRAM)" style="shape=trapezoid;perimeter=trapezoidPerimeter;whiteSpace=wrap;html=1;fixedSize=1;rounded=0;shadow=0;fillColor=#fff2cc;size=30;strokeColor=#0F0F4D;fontStyle=0;fontColor=#3414FF;sketch=1;" parent="h38YhSIRXOhSa6jcoTgB-39" vertex="1">
          <mxGeometry x="130" y="80" width="190" height="40" as="geometry" />
        </mxCell>
        <mxCell id="h38YhSIRXOhSa6jcoTgB-19" value="L3高速缓存&lt;br&gt;(SRAM)" style="shape=trapezoid;perimeter=trapezoidPerimeter;whiteSpace=wrap;html=1;fixedSize=1;rounded=0;shadow=0;fillColor=#fff2cc;size=30;strokeColor=#0F0F4D;fontStyle=0;fontColor=#3414FF;sketch=1;" parent="h38YhSIRXOhSa6jcoTgB-39" vertex="1">
          <mxGeometry x="100" y="120" width="250" height="40" as="geometry" />
        </mxCell>
        <mxCell id="h38YhSIRXOhSa6jcoTgB-20" value="L1高速缓存&lt;br&gt;(SRAM)" style="shape=trapezoid;perimeter=trapezoidPerimeter;whiteSpace=wrap;html=1;fixedSize=1;rounded=0;shadow=0;size=30;fillColor=#fff2cc;strokeColor=#0F0F4D;fontStyle=0;fontColor=#3414FF;sketch=1;" parent="h38YhSIRXOhSa6jcoTgB-39" vertex="1">
          <mxGeometry x="160" y="40" width="130" height="40" as="geometry" />
        </mxCell>
        <mxCell id="h38YhSIRXOhSa6jcoTgB-23" value="主存(DRAM)" style="shape=trapezoid;perimeter=trapezoidPerimeter;whiteSpace=wrap;html=1;fixedSize=1;rounded=0;shadow=0;size=30;fillColor=#fff2cc;strokeColor=#0F0F4D;fontStyle=0;fontColor=#3414FF;sketch=1;" parent="h38YhSIRXOhSa6jcoTgB-39" vertex="1">
          <mxGeometry x="70" y="160" width="310" height="40" as="geometry" />
        </mxCell>
        <mxCell id="h38YhSIRXOhSa6jcoTgB-28" value="&lt;br&gt;寄存器" style="shape=trapezoid;perimeter=trapezoidPerimeter;whiteSpace=wrap;html=1;fixedSize=1;rounded=0;shadow=0;size=50;fillColor=#fff2cc;strokeColor=#0F0F4D;fontStyle=0;fontColor=#3414FF;sketch=1;" parent="h38YhSIRXOhSa6jcoTgB-39" vertex="1">
          <mxGeometry x="190" width="70" height="40" as="geometry" />
        </mxCell>
        <mxCell id="h38YhSIRXOhSa6jcoTgB-25" value="磁盘(机械硬盘、固态硬盘)" style="shape=trapezoid;perimeter=trapezoidPerimeter;whiteSpace=wrap;html=1;fixedSize=1;rounded=0;shadow=0;size=30;fillColor=#fff2cc;strokeColor=#0F0F4D;fontStyle=0;fontColor=#3414FF;sketch=1;" parent="h38YhSIRXOhSa6jcoTgB-39" vertex="1">
          <mxGeometry x="40" y="200" width="370" height="40" as="geometry" />
        </mxCell>
        <mxCell id="h38YhSIRXOhSa6jcoTgB-31" value="" style="rounded=1;whiteSpace=wrap;html=1;shadow=1;dashed=1;fontColor=#3414FF;strokeColor=#0F0F4D;gradientDirection=south;gradientColor=#FFFF66;sketch=1;" parent="h38YhSIRXOhSa6jcoTgB-39" vertex="1">
          <mxGeometry width="20" height="240" as="geometry" />
        </mxCell>
        <mxCell id="h38YhSIRXOhSa6jcoTgB-33" value="" style="rounded=0;whiteSpace=wrap;html=1;shadow=1;dashed=1;fontColor=#3414FF;strokeColor=#0F0F4D;fillColor=#ffffff;gradientColor=#FFFF66;gradientDirection=north;sketch=1;" parent="h38YhSIRXOhSa6jcoTgB-39" vertex="1">
          <mxGeometry x="430" width="20" height="240" as="geometry" />
        </mxCell>
        <mxCell id="h38YhSIRXOhSa6jcoTgB-34" value="更小&lt;br&gt;更快&lt;br&gt;更贵" style="text;html=1;resizable=0;autosize=1;align=center;verticalAlign=middle;points=[];fillColor=none;strokeColor=none;rounded=0;shadow=1;dashed=1;fontColor=#000033;sketch=1;" parent="h38YhSIRXOhSa6jcoTgB-39" vertex="1">
          <mxGeometry x="370" y="60" width="40" height="50" as="geometry" />
        </mxCell>
        <mxCell id="h38YhSIRXOhSa6jcoTgB-35" value="" style="endArrow=classic;html=1;fontColor=#3414FF;shadow=0;strokeColor=#FF0000;sketch=1;" parent="h38YhSIRXOhSa6jcoTgB-39" edge="1">
          <mxGeometry width="50" height="50" relative="1" as="geometry">
            <mxPoint x="410" y="230" as="sourcePoint" />
            <mxPoint x="410" y="10" as="targetPoint" />
          </mxGeometry>
        </mxCell>
        <mxCell id="h38YhSIRXOhSa6jcoTgB-37" value="" style="endArrow=classic;html=1;shadow=0;fontColor=#3414FF;strokeColor=#FF0000;sketch=1;" parent="h38YhSIRXOhSa6jcoTgB-39" edge="1">
          <mxGeometry width="50" height="50" relative="1" as="geometry">
            <mxPoint x="40" y="10" as="sourcePoint" />
            <mxPoint x="40" y="210" as="targetPoint" />
          </mxGeometry>
        </mxCell>
        <mxCell id="h38YhSIRXOhSa6jcoTgB-38" value="更大&lt;br&gt;更慢&lt;br&gt;更便宜" style="text;html=1;resizable=0;autosize=1;align=center;verticalAlign=middle;points=[];fillColor=none;strokeColor=none;rounded=0;shadow=1;dashed=1;fontColor=#000033;sketch=1;" parent="h38YhSIRXOhSa6jcoTgB-39" vertex="1">
          <mxGeometry x="40" y="60" width="50" height="50" as="geometry" />
        </mxCell>
        <mxCell id="hWtCNFhX9IfaCWsVzRUq-15" style="edgeStyle=orthogonalEdgeStyle;curved=0;rounded=1;sketch=1;orthogonalLoop=1;jettySize=auto;html=1;entryX=0.319;entryY=0.001;entryDx=0;entryDy=0;entryPerimeter=0;shadow=0;fontColor=#000033;strokeColor=#6666FF;" parent="1" source="hWtCNFhX9IfaCWsVzRUq-5" target="hWtCNFhX9IfaCWsVzRUq-8" edge="1">
          <mxGeometry relative="1" as="geometry" />
        </mxCell>
        <mxCell id="hYofHsNvBsbMqg11Hh-b-3" style="edgeStyle=orthogonalEdgeStyle;rounded=0;orthogonalLoop=1;jettySize=auto;html=1;entryX=0.5;entryY=0;entryDx=0;entryDy=0;" edge="1" parent="1" source="hWtCNFhX9IfaCWsVzRUq-8" target="hYofHsNvBsbMqg11Hh-b-2">
          <mxGeometry relative="1" as="geometry" />
        </mxCell>
        <mxCell id="hWtCNFhX9IfaCWsVzRUq-8" value="统一共享高速缓存(L3)" style="rounded=1;whiteSpace=wrap;html=1;shadow=0;sketch=1;fontColor=#000033;strokeColor=#0F0F4D;fillStyle=auto;perimeterSpacing=0;glass=0;fillWeight=2;disableMultiStroke=1;fillOpacity=50;strokeOpacity=80;jiggle=1;hachureAngle=45;hachureGap=-10;fillColor=#FFCE9F;" parent="1" vertex="1">
          <mxGeometry x="190" y="710" width="380" height="40" as="geometry" />
        </mxCell>
        <mxCell id="hWtCNFhX9IfaCWsVzRUq-20" value="" style="group" parent="1" vertex="1" connectable="0">
          <mxGeometry x="110" y="350" width="545" height="310" as="geometry" />
        </mxCell>
        <mxCell id="h38YhSIRXOhSa6jcoTgB-43" value="寄存器" style="rounded=0;whiteSpace=wrap;html=1;shadow=0;sketch=1;strokeColor=#36393d;fillColor=#99FFFF;fillWeight=2;" parent="hWtCNFhX9IfaCWsVzRUq-20" vertex="1">
          <mxGeometry x="98" y="40" width="60" height="40" as="geometry" />
        </mxCell>
        <mxCell id="hWtCNFhX9IfaCWsVzRUq-1" value="程序计数器" style="rounded=0;whiteSpace=wrap;html=1;shadow=0;sketch=1;fontColor=#000033;strokeColor=#0F0F4D;fillColor=#99FFFF;strokeWidth=1;perimeterSpacing=5;fillStyle=auto;glass=0;curveFitting=0.95;fillWeight=2;" parent="hWtCNFhX9IfaCWsVzRUq-20" vertex="1">
          <mxGeometry x="175" y="40" width="80" height="40" as="geometry" />
        </mxCell>
        <mxCell id="hWtCNFhX9IfaCWsVzRUq-2" value="ALU" style="rounded=0;whiteSpace=wrap;html=1;shadow=0;sketch=1;fontColor=#000033;strokeColor=#0F0F4D;fillColor=#99FFFF;gradientColor=none;fillWeight=2;" parent="hWtCNFhX9IfaCWsVzRUq-20" vertex="1">
          <mxGeometry x="10" y="40" width="70" height="40" as="geometry" />
        </mxCell>
        <mxCell id="hWtCNFhX9IfaCWsVzRUq-3" value="MMU" style="rounded=1;whiteSpace=wrap;html=1;shadow=0;sketch=1;fontColor=#000033;fillColor=#99FFFF;gradientColor=none;strokeColor=#0000FF;fillWeight=2;" parent="hWtCNFhX9IfaCWsVzRUq-20" vertex="1">
          <mxGeometry x="101" y="110" width="60" height="40" as="geometry" />
        </mxCell>
        <mxCell id="hWtCNFhX9IfaCWsVzRUq-9" style="edgeStyle=orthogonalEdgeStyle;curved=0;rounded=1;sketch=1;orthogonalLoop=1;jettySize=auto;html=1;entryX=0.454;entryY=-0.023;entryDx=0;entryDy=0;entryPerimeter=0;shadow=0;fontColor=#000033;strokeColor=#FF0000;" parent="hWtCNFhX9IfaCWsVzRUq-20" source="h38YhSIRXOhSa6jcoTgB-43" target="hWtCNFhX9IfaCWsVzRUq-3" edge="1">
          <mxGeometry relative="1" as="geometry" />
        </mxCell>
        <mxCell id="hWtCNFhX9IfaCWsVzRUq-4" value="TLB缓存" style="rounded=1;whiteSpace=wrap;html=1;shadow=0;sketch=1;fontColor=#000033;strokeColor=#0F0F4D;fillColor=#99FFFF;gradientColor=none;fillWeight=2;" parent="hWtCNFhX9IfaCWsVzRUq-20" vertex="1">
          <mxGeometry x="181" y="180" width="68" height="40" as="geometry" />
        </mxCell>
        <mxCell id="hWtCNFhX9IfaCWsVzRUq-10" style="edgeStyle=orthogonalEdgeStyle;curved=0;rounded=1;sketch=1;orthogonalLoop=1;jettySize=auto;html=1;shadow=0;fontColor=#000033;strokeColor=#FF0000;" parent="hWtCNFhX9IfaCWsVzRUq-20" source="hWtCNFhX9IfaCWsVzRUq-3" target="hWtCNFhX9IfaCWsVzRUq-4" edge="1">
          <mxGeometry relative="1" as="geometry" />
        </mxCell>
        <mxCell id="hWtCNFhX9IfaCWsVzRUq-5" value="统一高速缓存&lt;br&gt;（L2）" style="rounded=1;whiteSpace=wrap;html=1;shadow=0;sketch=1;fontColor=#000033;strokeColor=#0F0F4D;fillColor=#99FFFF;gradientColor=none;fillWeight=2;" parent="hWtCNFhX9IfaCWsVzRUq-20" vertex="1">
          <mxGeometry x="11" y="260" width="150" height="40" as="geometry" />
        </mxCell>
        <mxCell id="hWtCNFhX9IfaCWsVzRUq-11" style="edgeStyle=orthogonalEdgeStyle;curved=0;rounded=1;sketch=1;orthogonalLoop=1;jettySize=auto;html=1;exitX=0.5;exitY=1;exitDx=0;exitDy=0;entryX=0.48;entryY=-0.046;entryDx=0;entryDy=0;entryPerimeter=0;shadow=0;fontColor=#000033;strokeColor=#FF0000;" parent="hWtCNFhX9IfaCWsVzRUq-20" source="hWtCNFhX9IfaCWsVzRUq-6" target="hWtCNFhX9IfaCWsVzRUq-5" edge="1">
          <mxGeometry relative="1" as="geometry" />
        </mxCell>
        <mxCell id="hWtCNFhX9IfaCWsVzRUq-6" value="I-Cache&lt;br&gt;(L1)" style="rounded=0;whiteSpace=wrap;html=1;shadow=0;sketch=1;fontColor=#000033;strokeColor=#0F0F4D;fillColor=#99FFFF;gradientColor=none;fillWeight=2;" parent="hWtCNFhX9IfaCWsVzRUq-20" vertex="1">
          <mxGeometry x="10" y="180" width="70" height="40" as="geometry" />
        </mxCell>
        <mxCell id="hWtCNFhX9IfaCWsVzRUq-13" style="edgeStyle=orthogonalEdgeStyle;curved=0;rounded=1;sketch=1;orthogonalLoop=1;jettySize=auto;html=1;shadow=0;fontColor=#000033;strokeColor=#6666FF;" parent="hWtCNFhX9IfaCWsVzRUq-20" source="hWtCNFhX9IfaCWsVzRUq-3" target="hWtCNFhX9IfaCWsVzRUq-6" edge="1">
          <mxGeometry relative="1" as="geometry" />
        </mxCell>
        <mxCell id="hWtCNFhX9IfaCWsVzRUq-12" style="edgeStyle=orthogonalEdgeStyle;curved=0;rounded=1;sketch=1;orthogonalLoop=1;jettySize=auto;html=1;entryX=0.559;entryY=-0.015;entryDx=0;entryDy=0;entryPerimeter=0;shadow=0;fontColor=#000033;strokeColor=#FF0000;" parent="hWtCNFhX9IfaCWsVzRUq-20" source="hWtCNFhX9IfaCWsVzRUq-7" target="hWtCNFhX9IfaCWsVzRUq-5" edge="1">
          <mxGeometry relative="1" as="geometry" />
        </mxCell>
        <mxCell id="hWtCNFhX9IfaCWsVzRUq-7" value="D-Cache&lt;br&gt;(L1)" style="rounded=0;whiteSpace=wrap;html=1;shadow=0;sketch=1;fontColor=#000033;strokeColor=#0F0F4D;fillColor=#99FFFF;gradientColor=none;fillWeight=2;" parent="hWtCNFhX9IfaCWsVzRUq-20" vertex="1">
          <mxGeometry x="98" y="180" width="66" height="40" as="geometry" />
        </mxCell>
        <mxCell id="hWtCNFhX9IfaCWsVzRUq-14" style="edgeStyle=orthogonalEdgeStyle;curved=0;rounded=1;sketch=1;orthogonalLoop=1;jettySize=auto;html=1;entryX=0.5;entryY=0;entryDx=0;entryDy=0;shadow=0;fontColor=#000033;strokeColor=#6666FF;" parent="hWtCNFhX9IfaCWsVzRUq-20" source="hWtCNFhX9IfaCWsVzRUq-3" target="hWtCNFhX9IfaCWsVzRUq-7" edge="1">
          <mxGeometry relative="1" as="geometry" />
        </mxCell>
        <mxCell id="hWtCNFhX9IfaCWsVzRUq-17" value="核0" style="swimlane;childLayout=stackLayout;horizontal=1;startSize=30;horizontalStack=0;rounded=1;fontSize=14;fontStyle=0;strokeWidth=1;resizeParent=0;resizeLast=1;shadow=0;dashed=1;align=center;glass=0;sketch=0;curveFitting=0.95;fontColor=#000033;swimlaneFillColor=none;gradientColor=#FFF7DE;" parent="hWtCNFhX9IfaCWsVzRUq-20" vertex="1">
          <mxGeometry width="260" height="310" as="geometry">
            <mxRectangle x="170" y="490" width="50" height="30" as="alternateBounds" />
          </mxGeometry>
        </mxCell>
        <mxCell id="P8Jxk_7muMQUMCP-3YNS-1" value="统一高速缓存&lt;br&gt;（L2）" style="rounded=1;whiteSpace=wrap;html=1;shadow=0;sketch=1;fontColor=#000033;strokeColor=#0F0F4D;fillColor=#99FFFF;gradientColor=none;fillWeight=2;" parent="hWtCNFhX9IfaCWsVzRUq-20" vertex="1">
          <mxGeometry x="301" y="260" width="150" height="40" as="geometry" />
        </mxCell>
        <mxCell id="P8Jxk_7muMQUMCP-3YNS-2" value="TLB缓存" style="rounded=1;whiteSpace=wrap;html=1;shadow=0;sketch=1;fontColor=#000033;strokeColor=#0F0F4D;fillColor=#99FFFF;gradientColor=none;fillWeight=2;" parent="hWtCNFhX9IfaCWsVzRUq-20" vertex="1">
          <mxGeometry x="471" y="180" width="68" height="40" as="geometry" />
        </mxCell>
        <mxCell id="P8Jxk_7muMQUMCP-3YNS-3" value="D-Cache&lt;br&gt;(L1)" style="rounded=0;whiteSpace=wrap;html=1;shadow=0;sketch=1;fontColor=#000033;strokeColor=#0F0F4D;fillColor=#99FFFF;gradientColor=none;fillWeight=2;" parent="hWtCNFhX9IfaCWsVzRUq-20" vertex="1">
          <mxGeometry x="388" y="180" width="66" height="40" as="geometry" />
        </mxCell>
        <mxCell id="P8Jxk_7muMQUMCP-3YNS-4" value="I-Cache&lt;br&gt;(L1)" style="rounded=0;whiteSpace=wrap;html=1;shadow=0;sketch=1;fontColor=#000033;strokeColor=#0F0F4D;fillColor=#99FFFF;gradientColor=none;fillWeight=2;" parent="hWtCNFhX9IfaCWsVzRUq-20" vertex="1">
          <mxGeometry x="300" y="180" width="70" height="40" as="geometry" />
        </mxCell>
        <mxCell id="P8Jxk_7muMQUMCP-3YNS-5" value="MMU" style="rounded=1;whiteSpace=wrap;html=1;shadow=0;sketch=1;fontColor=#000033;fillColor=#99FFFF;gradientColor=none;strokeColor=#0000FF;fillWeight=2;" parent="hWtCNFhX9IfaCWsVzRUq-20" vertex="1">
          <mxGeometry x="391" y="110" width="60" height="40" as="geometry" />
        </mxCell>
        <mxCell id="P8Jxk_7muMQUMCP-3YNS-6" value="程序计数器" style="rounded=0;whiteSpace=wrap;html=1;shadow=0;sketch=1;fontColor=#000033;strokeColor=#0F0F4D;fillColor=#99FFFF;strokeWidth=1;perimeterSpacing=5;fillStyle=auto;glass=0;curveFitting=0.95;fillWeight=2;" parent="hWtCNFhX9IfaCWsVzRUq-20" vertex="1">
          <mxGeometry x="465" y="40" width="80" height="40" as="geometry" />
        </mxCell>
        <mxCell id="P8Jxk_7muMQUMCP-3YNS-7" value="寄存器" style="rounded=0;whiteSpace=wrap;html=1;shadow=0;sketch=1;strokeColor=#36393d;fillColor=#99FFFF;fillWeight=2;" parent="hWtCNFhX9IfaCWsVzRUq-20" vertex="1">
          <mxGeometry x="388" y="40" width="60" height="40" as="geometry" />
        </mxCell>
        <mxCell id="P8Jxk_7muMQUMCP-3YNS-8" value="ALU" style="rounded=0;whiteSpace=wrap;html=1;shadow=0;sketch=1;fontColor=#000033;strokeColor=#0F0F4D;fillColor=#99FFFF;gradientColor=none;fillWeight=2;" parent="hWtCNFhX9IfaCWsVzRUq-20" vertex="1">
          <mxGeometry x="300" y="40" width="70" height="40" as="geometry" />
        </mxCell>
        <mxCell id="P8Jxk_7muMQUMCP-3YNS-9" value="MMU" style="rounded=1;whiteSpace=wrap;html=1;shadow=0;sketch=1;fontColor=#000033;fillColor=#99FFFF;gradientColor=none;strokeColor=#0000FF;" parent="hWtCNFhX9IfaCWsVzRUq-20" vertex="1">
          <mxGeometry x="391" y="110" width="60" height="40" as="geometry" />
        </mxCell>
        <mxCell id="P8Jxk_7muMQUMCP-3YNS-10" value="" style="group" parent="hWtCNFhX9IfaCWsVzRUq-20" vertex="1" connectable="0">
          <mxGeometry width="545" height="310" as="geometry" />
        </mxCell>
        <mxCell id="P8Jxk_7muMQUMCP-3YNS-11" value="寄存器" style="rounded=0;whiteSpace=wrap;html=1;shadow=0;sketch=1;strokeColor=#36393d;fillColor=#cce5ff;fillWeight=2;disableMultiStroke=1;" parent="P8Jxk_7muMQUMCP-3YNS-10" vertex="1">
          <mxGeometry x="98" y="40" width="60" height="40" as="geometry" />
        </mxCell>
        <mxCell id="P8Jxk_7muMQUMCP-3YNS-12" value="程序计数器" style="rounded=0;whiteSpace=wrap;html=1;shadow=0;sketch=1;strokeColor=#36393d;fillColor=#cce5ff;strokeWidth=1;perimeterSpacing=5;fillStyle=auto;glass=0;curveFitting=0.95;fillWeight=2;disableMultiStroke=1;" parent="P8Jxk_7muMQUMCP-3YNS-10" vertex="1">
          <mxGeometry x="175" y="40" width="80" height="40" as="geometry" />
        </mxCell>
        <mxCell id="P8Jxk_7muMQUMCP-3YNS-13" value="ALU" style="rounded=0;whiteSpace=wrap;html=1;shadow=0;sketch=1;strokeColor=#36393d;fillColor=#cce5ff;fillWeight=2;disableMultiStroke=1;" parent="P8Jxk_7muMQUMCP-3YNS-10" vertex="1">
          <mxGeometry x="10" y="40" width="70" height="40" as="geometry" />
        </mxCell>
        <mxCell id="P8Jxk_7muMQUMCP-3YNS-14" value="MMU" style="rounded=1;whiteSpace=wrap;html=1;shadow=0;sketch=1;fontColor=#000033;gradientColor=none;strokeColor=#0000FF;fillWeight=10;fillColor=#FFFF33;" parent="P8Jxk_7muMQUMCP-3YNS-10" vertex="1">
          <mxGeometry x="101" y="110" width="60" height="40" as="geometry" />
        </mxCell>
        <mxCell id="P8Jxk_7muMQUMCP-3YNS-15" style="edgeStyle=orthogonalEdgeStyle;curved=0;rounded=1;sketch=1;orthogonalLoop=1;jettySize=auto;html=1;entryX=0.454;entryY=-0.023;entryDx=0;entryDy=0;entryPerimeter=0;shadow=0;fontColor=#000033;strokeColor=#FF0000;" parent="P8Jxk_7muMQUMCP-3YNS-10" source="P8Jxk_7muMQUMCP-3YNS-11" target="P8Jxk_7muMQUMCP-3YNS-14" edge="1">
          <mxGeometry relative="1" as="geometry" />
        </mxCell>
        <mxCell id="P8Jxk_7muMQUMCP-3YNS-16" value="TLB缓存" style="rounded=1;whiteSpace=wrap;html=1;shadow=0;sketch=1;fontColor=#000033;strokeColor=#0F0F4D;fillColor=#99FFFF;gradientColor=none;fillWeight=2;" parent="P8Jxk_7muMQUMCP-3YNS-10" vertex="1">
          <mxGeometry x="181" y="180" width="68" height="40" as="geometry" />
        </mxCell>
        <mxCell id="P8Jxk_7muMQUMCP-3YNS-17" style="edgeStyle=orthogonalEdgeStyle;curved=0;rounded=1;sketch=1;orthogonalLoop=1;jettySize=auto;html=1;shadow=0;fontColor=#000033;strokeColor=#FF0000;" parent="P8Jxk_7muMQUMCP-3YNS-10" source="P8Jxk_7muMQUMCP-3YNS-14" target="P8Jxk_7muMQUMCP-3YNS-16" edge="1">
          <mxGeometry relative="1" as="geometry" />
        </mxCell>
        <mxCell id="P8Jxk_7muMQUMCP-3YNS-18" value="统一高速缓存&lt;br&gt;（L2）" style="rounded=1;whiteSpace=wrap;html=1;shadow=0;sketch=1;strokeColor=#6c8ebf;fillWeight=10;fillColor=#dae8fc;strokeOpacity=50;fillOpacity=100;noLabel=0;disableMultiStroke=1;disableMultiStrokeFill=0;" parent="P8Jxk_7muMQUMCP-3YNS-10" vertex="1">
          <mxGeometry x="11" y="260" width="150" height="40" as="geometry" />
        </mxCell>
        <mxCell id="P8Jxk_7muMQUMCP-3YNS-19" style="edgeStyle=orthogonalEdgeStyle;curved=0;rounded=1;sketch=1;orthogonalLoop=1;jettySize=auto;html=1;exitX=0.5;exitY=1;exitDx=0;exitDy=0;entryX=0.48;entryY=-0.046;entryDx=0;entryDy=0;entryPerimeter=0;shadow=0;fontColor=#000033;strokeColor=#FF0000;" parent="P8Jxk_7muMQUMCP-3YNS-10" source="P8Jxk_7muMQUMCP-3YNS-20" target="P8Jxk_7muMQUMCP-3YNS-18" edge="1">
          <mxGeometry relative="1" as="geometry" />
        </mxCell>
        <mxCell id="P8Jxk_7muMQUMCP-3YNS-20" value="I-Cache&lt;br&gt;(L1)" style="rounded=0;whiteSpace=wrap;html=1;shadow=0;sketch=1;fillWeight=10;strokeColor=#d6b656;curveFitting=0.95;fillColor=#FFFF99;hachureGap=5;" parent="P8Jxk_7muMQUMCP-3YNS-10" vertex="1">
          <mxGeometry x="10" y="180" width="70" height="40" as="geometry" />
        </mxCell>
        <mxCell id="P8Jxk_7muMQUMCP-3YNS-21" style="edgeStyle=orthogonalEdgeStyle;curved=0;rounded=1;sketch=1;orthogonalLoop=1;jettySize=auto;html=1;shadow=0;fontColor=#000033;strokeColor=#6666FF;" parent="P8Jxk_7muMQUMCP-3YNS-10" source="P8Jxk_7muMQUMCP-3YNS-14" target="P8Jxk_7muMQUMCP-3YNS-20" edge="1">
          <mxGeometry relative="1" as="geometry" />
        </mxCell>
        <mxCell id="P8Jxk_7muMQUMCP-3YNS-22" style="edgeStyle=orthogonalEdgeStyle;curved=0;rounded=1;sketch=1;orthogonalLoop=1;jettySize=auto;html=1;entryX=0.559;entryY=-0.015;entryDx=0;entryDy=0;entryPerimeter=0;shadow=0;fontColor=#000033;strokeColor=#FF0000;" parent="P8Jxk_7muMQUMCP-3YNS-10" source="P8Jxk_7muMQUMCP-3YNS-23" target="P8Jxk_7muMQUMCP-3YNS-18" edge="1">
          <mxGeometry relative="1" as="geometry" />
        </mxCell>
        <mxCell id="P8Jxk_7muMQUMCP-3YNS-23" value="D-Cache&lt;br&gt;(L1)" style="rounded=0;whiteSpace=wrap;html=1;shadow=0;sketch=1;fillWeight=10;strokeColor=#d6b656;curveFitting=0.95;fillColor=#FFFF99;hachureGap=5;" parent="P8Jxk_7muMQUMCP-3YNS-10" vertex="1">
          <mxGeometry x="98" y="180" width="66" height="40" as="geometry" />
        </mxCell>
        <mxCell id="P8Jxk_7muMQUMCP-3YNS-24" style="edgeStyle=orthogonalEdgeStyle;curved=0;rounded=1;sketch=1;orthogonalLoop=1;jettySize=auto;html=1;entryX=0.5;entryY=0;entryDx=0;entryDy=0;shadow=0;fontColor=#000033;strokeColor=#6666FF;" parent="P8Jxk_7muMQUMCP-3YNS-10" source="P8Jxk_7muMQUMCP-3YNS-14" target="P8Jxk_7muMQUMCP-3YNS-23" edge="1">
          <mxGeometry relative="1" as="geometry" />
        </mxCell>
        <mxCell id="P8Jxk_7muMQUMCP-3YNS-25" value="核0" style="swimlane;childLayout=stackLayout;horizontal=1;startSize=30;horizontalStack=0;rounded=1;fontSize=14;fontStyle=0;strokeWidth=1;resizeParent=0;resizeLast=1;shadow=0;dashed=1;align=center;glass=0;sketch=0;curveFitting=0.95;fontColor=#000033;swimlaneFillColor=none;gradientColor=#FFF7DE;" parent="P8Jxk_7muMQUMCP-3YNS-10" vertex="1">
          <mxGeometry width="260" height="310" as="geometry">
            <mxRectangle x="170" y="490" width="50" height="30" as="alternateBounds" />
          </mxGeometry>
        </mxCell>
        <mxCell id="P8Jxk_7muMQUMCP-3YNS-26" value="统一高速缓存&lt;br&gt;（L2）" style="rounded=1;whiteSpace=wrap;html=1;shadow=0;sketch=1;fontColor=#000033;strokeColor=#0F0F4D;fillColor=#99FFFF;gradientColor=none;fillWeight=2;" parent="P8Jxk_7muMQUMCP-3YNS-10" vertex="1">
          <mxGeometry x="301" y="260" width="150" height="40" as="geometry" />
        </mxCell>
        <mxCell id="P8Jxk_7muMQUMCP-3YNS-27" value="TLB缓存" style="rounded=1;whiteSpace=wrap;html=1;shadow=0;sketch=1;fontColor=#000033;strokeColor=#0F0F4D;fillColor=#99FFFF;gradientColor=none;fillWeight=2;" parent="P8Jxk_7muMQUMCP-3YNS-10" vertex="1">
          <mxGeometry x="471" y="180" width="68" height="40" as="geometry" />
        </mxCell>
        <mxCell id="P8Jxk_7muMQUMCP-3YNS-28" value="D-Cache&lt;br&gt;(L1)" style="rounded=0;whiteSpace=wrap;html=1;shadow=0;sketch=1;fontColor=#000033;strokeColor=#0F0F4D;fillColor=#99FFFF;gradientColor=none;fillWeight=2;" parent="P8Jxk_7muMQUMCP-3YNS-10" vertex="1">
          <mxGeometry x="388" y="180" width="66" height="40" as="geometry" />
        </mxCell>
        <mxCell id="P8Jxk_7muMQUMCP-3YNS-29" value="I-Cache&lt;br&gt;(L1)" style="rounded=0;whiteSpace=wrap;html=1;shadow=0;sketch=1;fontColor=#000033;strokeColor=#0F0F4D;fillColor=#99FFFF;gradientColor=none;fillWeight=2;" parent="P8Jxk_7muMQUMCP-3YNS-10" vertex="1">
          <mxGeometry x="300" y="180" width="70" height="40" as="geometry" />
        </mxCell>
        <mxCell id="P8Jxk_7muMQUMCP-3YNS-30" value="MMU" style="rounded=1;whiteSpace=wrap;html=1;shadow=0;sketch=1;fontColor=#000033;fillColor=#99FFFF;gradientColor=none;strokeColor=#0000FF;fillWeight=2;" parent="P8Jxk_7muMQUMCP-3YNS-10" vertex="1">
          <mxGeometry x="391" y="110" width="60" height="40" as="geometry" />
        </mxCell>
        <mxCell id="P8Jxk_7muMQUMCP-3YNS-31" value="程序计数器" style="rounded=0;whiteSpace=wrap;html=1;shadow=0;sketch=1;fontColor=#000033;strokeColor=#0F0F4D;fillColor=#99FFFF;strokeWidth=1;perimeterSpacing=5;fillStyle=auto;glass=0;curveFitting=0.95;fillWeight=2;" parent="P8Jxk_7muMQUMCP-3YNS-10" vertex="1">
          <mxGeometry x="465" y="40" width="80" height="40" as="geometry" />
        </mxCell>
        <mxCell id="P8Jxk_7muMQUMCP-3YNS-32" value="寄存器" style="rounded=0;whiteSpace=wrap;html=1;shadow=0;sketch=1;strokeColor=#36393d;fillColor=#99FFFF;fillWeight=2;" parent="P8Jxk_7muMQUMCP-3YNS-10" vertex="1">
          <mxGeometry x="388" y="40" width="60" height="40" as="geometry" />
        </mxCell>
        <mxCell id="P8Jxk_7muMQUMCP-3YNS-33" value="ALU" style="rounded=0;whiteSpace=wrap;html=1;shadow=0;sketch=1;fontColor=#000033;strokeColor=#0F0F4D;fillColor=#99FFFF;gradientColor=none;fillWeight=2;" parent="P8Jxk_7muMQUMCP-3YNS-10" vertex="1">
          <mxGeometry x="300" y="40" width="70" height="40" as="geometry" />
        </mxCell>
        <mxCell id="P8Jxk_7muMQUMCP-3YNS-34" value="ALU" style="rounded=0;whiteSpace=wrap;html=1;shadow=0;sketch=1;fillWeight=10;disableMultiStroke=1;strokeColor=#d6b656;curveFitting=0.95;fillColor=#FFFF99;hachureGap=5;" parent="P8Jxk_7muMQUMCP-3YNS-10" vertex="1">
          <mxGeometry x="10" y="40" width="70" height="40" as="geometry" />
        </mxCell>
        <mxCell id="P8Jxk_7muMQUMCP-3YNS-35" value="寄存器" style="rounded=0;whiteSpace=wrap;html=1;shadow=0;sketch=1;fillWeight=10;disableMultiStroke=1;strokeColor=#d6b656;curveFitting=0.95;fillColor=#FFFF99;hachureGap=5;" parent="P8Jxk_7muMQUMCP-3YNS-10" vertex="1">
          <mxGeometry x="98" y="40" width="60" height="40" as="geometry" />
        </mxCell>
        <mxCell id="P8Jxk_7muMQUMCP-3YNS-36" value="程序计数器" style="rounded=0;whiteSpace=wrap;html=1;shadow=0;sketch=1;strokeWidth=1;perimeterSpacing=5;fillStyle=auto;glass=0;curveFitting=0.95;fillWeight=5;disableMultiStroke=1;strokeColor=#d6b656;fillColor=#FFFF99;hachureGap=5;" parent="P8Jxk_7muMQUMCP-3YNS-10" vertex="1">
          <mxGeometry x="175" y="40" width="80" height="40" as="geometry" />
        </mxCell>
        <mxCell id="P8Jxk_7muMQUMCP-3YNS-37" value="TLB缓存" style="rounded=1;whiteSpace=wrap;html=1;shadow=0;sketch=1;fillWeight=10;strokeColor=#d6b656;curveFitting=0.95;fillColor=#FFFF99;hachureGap=5;" parent="P8Jxk_7muMQUMCP-3YNS-10" vertex="1">
          <mxGeometry x="181" y="180" width="68" height="40" as="geometry" />
        </mxCell>
        <mxCell id="hWtCNFhX9IfaCWsVzRUq-21" value="" style="group;sketch=0;shadow=0;" parent="1" vertex="1" connectable="0">
          <mxGeometry x="400" y="350" width="260" height="310" as="geometry" />
        </mxCell>
        <mxCell id="hWtCNFhX9IfaCWsVzRUq-22" value="寄存器" style="rounded=0;whiteSpace=wrap;html=1;shadow=0;sketch=1;strokeColor=#36393d;disableMultiStroke=1;disableMultiStrokeFill=0;fillColor=#CCFF99;fillWeight=11;" parent="hWtCNFhX9IfaCWsVzRUq-21" vertex="1">
          <mxGeometry x="98" y="40" width="60" height="40" as="geometry" />
        </mxCell>
        <mxCell id="hWtCNFhX9IfaCWsVzRUq-23" value="程序计数器" style="rounded=0;whiteSpace=wrap;html=1;shadow=0;sketch=1;fontColor=#000033;strokeColor=#0F0F4D;strokeWidth=1;perimeterSpacing=5;fillStyle=auto;glass=0;curveFitting=0.95;disableMultiStroke=1;disableMultiStrokeFill=0;fillColor=#CCFF99;fillWeight=11;" parent="hWtCNFhX9IfaCWsVzRUq-21" vertex="1">
          <mxGeometry x="175" y="40" width="80" height="40" as="geometry" />
        </mxCell>
        <mxCell id="hWtCNFhX9IfaCWsVzRUq-24" value="ALU" style="rounded=0;whiteSpace=wrap;html=1;shadow=0;sketch=1;fontColor=#000033;strokeColor=#0F0F4D;gradientColor=none;disableMultiStroke=1;disableMultiStrokeFill=0;fillColor=#CCFF99;fillWeight=11;" parent="hWtCNFhX9IfaCWsVzRUq-21" vertex="1">
          <mxGeometry x="10" y="40" width="70" height="40" as="geometry" />
        </mxCell>
        <mxCell id="hWtCNFhX9IfaCWsVzRUq-25" value="MMU" style="rounded=1;whiteSpace=wrap;html=1;shadow=0;sketch=1;fontColor=#000033;gradientColor=none;strokeColor=#0000FF;disableMultiStroke=1;disableMultiStrokeFill=0;fillWeight=11;fillColor=#FFFF33;" parent="hWtCNFhX9IfaCWsVzRUq-21" vertex="1">
          <mxGeometry x="101" y="110" width="60" height="40" as="geometry" />
        </mxCell>
        <mxCell id="hWtCNFhX9IfaCWsVzRUq-26" style="edgeStyle=orthogonalEdgeStyle;curved=0;rounded=1;sketch=1;orthogonalLoop=1;jettySize=auto;html=1;entryX=0.454;entryY=-0.023;entryDx=0;entryDy=0;entryPerimeter=0;shadow=0;fontColor=#000033;strokeColor=#FF0000;" parent="hWtCNFhX9IfaCWsVzRUq-21" source="hWtCNFhX9IfaCWsVzRUq-22" target="hWtCNFhX9IfaCWsVzRUq-25" edge="1">
          <mxGeometry relative="1" as="geometry" />
        </mxCell>
        <mxCell id="hWtCNFhX9IfaCWsVzRUq-27" value="TLB缓存" style="rounded=1;whiteSpace=wrap;html=1;shadow=0;sketch=1;fontColor=#000033;strokeColor=#0F0F4D;gradientColor=none;disableMultiStroke=1;disableMultiStrokeFill=0;fillColor=#CCFF99;fillWeight=11;" parent="hWtCNFhX9IfaCWsVzRUq-21" vertex="1">
          <mxGeometry x="181" y="180" width="68" height="40" as="geometry" />
        </mxCell>
        <mxCell id="hWtCNFhX9IfaCWsVzRUq-28" style="edgeStyle=orthogonalEdgeStyle;curved=0;rounded=1;sketch=1;orthogonalLoop=1;jettySize=auto;html=1;shadow=0;fontColor=#000033;strokeColor=#FF0000;" parent="hWtCNFhX9IfaCWsVzRUq-21" source="hWtCNFhX9IfaCWsVzRUq-25" target="hWtCNFhX9IfaCWsVzRUq-27" edge="1">
          <mxGeometry relative="1" as="geometry" />
        </mxCell>
        <mxCell id="hWtCNFhX9IfaCWsVzRUq-29" value="统一高速缓存&lt;br&gt;（L2）" style="rounded=1;whiteSpace=wrap;html=1;shadow=0;sketch=1;strokeColor=#6c8ebf;disableMultiStroke=1;disableMultiStrokeFill=0;fillColor=#dae8fc;fillWeight=11;" parent="hWtCNFhX9IfaCWsVzRUq-21" vertex="1">
          <mxGeometry x="11" y="260" width="150" height="40" as="geometry" />
        </mxCell>
        <mxCell id="hWtCNFhX9IfaCWsVzRUq-30" style="edgeStyle=orthogonalEdgeStyle;curved=0;rounded=1;sketch=1;orthogonalLoop=1;jettySize=auto;html=1;exitX=0.5;exitY=1;exitDx=0;exitDy=0;entryX=0.48;entryY=-0.046;entryDx=0;entryDy=0;entryPerimeter=0;shadow=0;fontColor=#000033;strokeColor=#FF0000;" parent="hWtCNFhX9IfaCWsVzRUq-21" source="hWtCNFhX9IfaCWsVzRUq-31" target="hWtCNFhX9IfaCWsVzRUq-29" edge="1">
          <mxGeometry relative="1" as="geometry" />
        </mxCell>
        <mxCell id="hWtCNFhX9IfaCWsVzRUq-31" value="I-Cache&lt;br&gt;(L1)" style="rounded=0;whiteSpace=wrap;html=1;shadow=0;sketch=1;fontColor=#000033;strokeColor=#0F0F4D;gradientColor=none;disableMultiStroke=1;disableMultiStrokeFill=0;fillColor=#CCFF99;fillWeight=11;" parent="hWtCNFhX9IfaCWsVzRUq-21" vertex="1">
          <mxGeometry x="10" y="180" width="70" height="40" as="geometry" />
        </mxCell>
        <mxCell id="hWtCNFhX9IfaCWsVzRUq-32" style="edgeStyle=orthogonalEdgeStyle;curved=0;rounded=1;sketch=1;orthogonalLoop=1;jettySize=auto;html=1;shadow=0;fontColor=#000033;strokeColor=#6666FF;" parent="hWtCNFhX9IfaCWsVzRUq-21" source="hWtCNFhX9IfaCWsVzRUq-25" target="hWtCNFhX9IfaCWsVzRUq-31" edge="1">
          <mxGeometry relative="1" as="geometry" />
        </mxCell>
        <mxCell id="hWtCNFhX9IfaCWsVzRUq-33" style="edgeStyle=orthogonalEdgeStyle;curved=0;rounded=1;sketch=1;orthogonalLoop=1;jettySize=auto;html=1;entryX=0.559;entryY=-0.015;entryDx=0;entryDy=0;entryPerimeter=0;shadow=0;fontColor=#000033;strokeColor=#FF0000;" parent="hWtCNFhX9IfaCWsVzRUq-21" source="hWtCNFhX9IfaCWsVzRUq-34" target="hWtCNFhX9IfaCWsVzRUq-29" edge="1">
          <mxGeometry relative="1" as="geometry" />
        </mxCell>
        <mxCell id="hWtCNFhX9IfaCWsVzRUq-34" value="D-Cache&lt;br&gt;(L1)" style="rounded=0;whiteSpace=wrap;html=1;shadow=0;sketch=1;fontColor=#000033;strokeColor=#0F0F4D;gradientColor=none;disableMultiStroke=1;disableMultiStrokeFill=0;fillColor=#CCFF99;fillWeight=11;" parent="hWtCNFhX9IfaCWsVzRUq-21" vertex="1">
          <mxGeometry x="98" y="180" width="66" height="40" as="geometry" />
        </mxCell>
        <mxCell id="hWtCNFhX9IfaCWsVzRUq-35" style="edgeStyle=orthogonalEdgeStyle;curved=0;rounded=1;sketch=1;orthogonalLoop=1;jettySize=auto;html=1;entryX=0.5;entryY=0;entryDx=0;entryDy=0;shadow=0;fontColor=#000033;strokeColor=#6666FF;" parent="hWtCNFhX9IfaCWsVzRUq-21" source="hWtCNFhX9IfaCWsVzRUq-25" target="hWtCNFhX9IfaCWsVzRUq-34" edge="1">
          <mxGeometry relative="1" as="geometry" />
        </mxCell>
        <mxCell id="hWtCNFhX9IfaCWsVzRUq-36" value="核n" style="swimlane;childLayout=stackLayout;horizontal=1;startSize=30;horizontalStack=0;rounded=1;fontSize=14;fontStyle=0;strokeWidth=1;resizeParent=0;resizeLast=1;shadow=0;dashed=1;align=center;glass=0;sketch=0;curveFitting=0.95;fontColor=#000033;swimlaneFillColor=none;gradientColor=#FFF7DE;" parent="hWtCNFhX9IfaCWsVzRUq-21" vertex="1">
          <mxGeometry width="260" height="310" as="geometry">
            <mxRectangle width="50" height="30" as="alternateBounds" />
          </mxGeometry>
        </mxCell>
        <mxCell id="hWtCNFhX9IfaCWsVzRUq-37" style="edgeStyle=orthogonalEdgeStyle;curved=0;rounded=1;sketch=1;orthogonalLoop=1;jettySize=auto;html=1;shadow=0;fontColor=#000033;strokeColor=#6666FF;entryX=0.56;entryY=0.001;entryDx=0;entryDy=0;entryPerimeter=0;" parent="1" source="hWtCNFhX9IfaCWsVzRUq-29" target="hWtCNFhX9IfaCWsVzRUq-8" edge="1">
          <mxGeometry relative="1" as="geometry" />
        </mxCell>
        <mxCell id="hYofHsNvBsbMqg11Hh-b-2" value="总线接口" style="rounded=1;whiteSpace=wrap;html=1;shadow=0;sketch=1;fillWeight=2;hachureGap=6;hachureAngle=45;jiggle=1;disableMultiStroke=1;disableMultiStrokeFill=0;curveFitting=0.95;expand=1;strokeColor=#10739e;fillColor=#FFD966;" vertex="1" parent="1">
          <mxGeometry x="175" y="800" width="410" height="30" as="geometry" />
        </mxCell>
        <mxCell id="hYofHsNvBsbMqg11Hh-b-8" value="内存总线" style="edgeStyle=orthogonalEdgeStyle;rounded=0;orthogonalLoop=1;jettySize=auto;html=1;startArrow=classic;startFill=1;endArrow=classic;endFill=1;" edge="1" parent="1" source="hYofHsNvBsbMqg11Hh-b-4" target="hYofHsNvBsbMqg11Hh-b-5">
          <mxGeometry relative="1" as="geometry">
            <Array as="points">
              <mxPoint x="800" y="815" />
              <mxPoint x="800" y="815" />
            </Array>
          </mxGeometry>
        </mxCell>
        <mxCell id="hYofHsNvBsbMqg11Hh-b-10" value="IO总线" style="edgeStyle=orthogonalEdgeStyle;rounded=0;orthogonalLoop=1;jettySize=auto;html=1;exitX=0.5;exitY=1;exitDx=0;exitDy=0;startArrow=classic;startFill=1;endArrow=classic;endFill=1;" edge="1" parent="1" source="hYofHsNvBsbMqg11Hh-b-4" target="hYofHsNvBsbMqg11Hh-b-9">
          <mxGeometry relative="1" as="geometry" />
        </mxCell>
        <mxCell id="hYofHsNvBsbMqg11Hh-b-4" value="IO桥" style="rounded=1;whiteSpace=wrap;html=1;shadow=0;sketch=1;fillWeight=2;hachureGap=-10;hachureAngle=45;jiggle=1;disableMultiStroke=1;disableMultiStrokeFill=0;curveFitting=0.95;fillColor=#FFD966;gradientColor=none;" vertex="1" parent="1">
          <mxGeometry x="670" y="792.5" width="80" height="45" as="geometry" />
        </mxCell>
        <mxCell id="hYofHsNvBsbMqg11Hh-b-26" value="DMA" style="edgeStyle=orthogonalEdgeStyle;curved=1;sketch=1;disableMultiStroke=1;orthogonalLoop=1;jettySize=auto;html=1;entryX=0.864;entryY=0.008;entryDx=0;entryDy=0;entryPerimeter=0;shadow=0;dashed=1;startArrow=classic;startFill=1;endArrow=classic;endFill=1;exitX=0.5;exitY=1;exitDx=0;exitDy=0;" edge="1" parent="1" source="hYofHsNvBsbMqg11Hh-b-5" target="hYofHsNvBsbMqg11Hh-b-9">
          <mxGeometry relative="1" as="geometry" />
        </mxCell>
        <mxCell id="hYofHsNvBsbMqg11Hh-b-5" value="主存&lt;br&gt;（内存条,如DDR3）" style="whiteSpace=wrap;html=1;rounded=1;shadow=0;sketch=1;fillWeight=10;hachureGap=-10;hachureAngle=45;jiggle=1;disableMultiStroke=1;disableMultiStrokeFill=0;curveFitting=0.95;fillColor=#FFF4C3;" vertex="1" parent="1">
          <mxGeometry x="860" y="792.5" width="120" height="45" as="geometry" />
        </mxCell>
        <mxCell id="hYofHsNvBsbMqg11Hh-b-7" value="系统总线" style="endArrow=classic;startArrow=classic;html=1;entryX=0;entryY=0.5;entryDx=0;entryDy=0;exitX=1;exitY=0.5;exitDx=0;exitDy=0;" edge="1" parent="1" source="hYofHsNvBsbMqg11Hh-b-2" target="hYofHsNvBsbMqg11Hh-b-4">
          <mxGeometry width="50" height="50" relative="1" as="geometry">
            <mxPoint x="590" y="815" as="sourcePoint" />
            <mxPoint x="630" y="920" as="targetPoint" />
          </mxGeometry>
        </mxCell>
        <mxCell id="hYofHsNvBsbMqg11Hh-b-9" value="IO总线" style="rounded=1;whiteSpace=wrap;html=1;shadow=0;sketch=1;fillWeight=3;hachureGap=6;hachureAngle=45;jiggle=1;disableMultiStroke=1;disableMultiStrokeFill=0;curveFitting=0.95;fillColor=#fad9d5;strokeColor=#ae4132;dashGap=2;" vertex="1" parent="1">
          <mxGeometry x="175" y="910" width="655" height="30" as="geometry" />
        </mxCell>
        <mxCell id="hYofHsNvBsbMqg11Hh-b-21" style="edgeStyle=orthogonalEdgeStyle;rounded=0;orthogonalLoop=1;jettySize=auto;html=1;entryX=0.81;entryY=1.039;entryDx=0;entryDy=0;entryPerimeter=0;startArrow=classic;startFill=1;endArrow=classic;endFill=1;" edge="1" parent="1" source="hYofHsNvBsbMqg11Hh-b-11" target="hYofHsNvBsbMqg11Hh-b-9">
          <mxGeometry relative="1" as="geometry" />
        </mxCell>
        <mxCell id="hYofHsNvBsbMqg11Hh-b-11" value="" style="shape=image;html=1;verticalAlign=top;verticalLabelPosition=bottom;labelBackgroundColor=#ffffff;imageAspect=0;aspect=fixed;image=https://cdn1.iconfinder.com/data/icons/computer-hardware-glyphs-vol-2/52/storage__ssd__card__device__data__server__hardware-128.png;shadow=0;sketch=0;fillWeight=3;hachureGap=6;hachureAngle=45;jiggle=1;disableMultiStroke=1;disableMultiStrokeFill=0;curveFitting=0.95;fillColor=#FFF4C3;gradientColor=none;" vertex="1" parent="1">
          <mxGeometry x="671" y="1011" width="70" height="70" as="geometry" />
        </mxCell>
        <mxCell id="hYofHsNvBsbMqg11Hh-b-17" style="edgeStyle=orthogonalEdgeStyle;rounded=0;orthogonalLoop=1;jettySize=auto;html=1;entryX=0.062;entryY=1.086;entryDx=0;entryDy=0;entryPerimeter=0;startArrow=classic;startFill=1;endArrow=classic;endFill=1;" edge="1" parent="1" source="hYofHsNvBsbMqg11Hh-b-12" target="hYofHsNvBsbMqg11Hh-b-9">
          <mxGeometry relative="1" as="geometry" />
        </mxCell>
        <mxCell id="hYofHsNvBsbMqg11Hh-b-12" value="" style="image;html=1;image=img/lib/clip_art/computers/Monitor_128x128.png;shadow=0;sketch=0;fillWeight=3;hachureGap=6;hachureAngle=45;jiggle=1;disableMultiStroke=1;disableMultiStrokeFill=0;curveFitting=0.95;fillColor=#FFF4C3;gradientColor=none;" vertex="1" parent="1">
          <mxGeometry x="175" y="1000" width="80" height="80" as="geometry" />
        </mxCell>
        <mxCell id="hYofHsNvBsbMqg11Hh-b-22" style="edgeStyle=orthogonalEdgeStyle;rounded=0;orthogonalLoop=1;jettySize=auto;html=1;entryX=0.975;entryY=1.007;entryDx=0;entryDy=0;entryPerimeter=0;startArrow=classic;startFill=1;endArrow=classic;endFill=1;" edge="1" parent="1" source="hYofHsNvBsbMqg11Hh-b-13" target="hYofHsNvBsbMqg11Hh-b-9">
          <mxGeometry relative="1" as="geometry" />
        </mxCell>
        <mxCell id="hYofHsNvBsbMqg11Hh-b-13" value="" style="pointerEvents=1;shadow=0;dashed=0;html=1;strokeColor=none;fillColor=#4495D1;labelPosition=center;verticalLabelPosition=bottom;verticalAlign=top;align=center;outlineConnect=0;shape=mxgraph.veeam.usb;sketch=0;fillWeight=3;hachureGap=6;hachureAngle=45;jiggle=1;disableMultiStroke=1;disableMultiStrokeFill=0;curveFitting=0.95;" vertex="1" parent="1">
          <mxGeometry x="770" y="1052" width="86" height="28" as="geometry" />
        </mxCell>
        <mxCell id="hYofHsNvBsbMqg11Hh-b-18" style="edgeStyle=orthogonalEdgeStyle;rounded=0;orthogonalLoop=1;jettySize=auto;html=1;entryX=0.206;entryY=1;entryDx=0;entryDy=0;entryPerimeter=0;startArrow=classic;startFill=1;endArrow=classic;endFill=1;" edge="1" parent="1" source="hYofHsNvBsbMqg11Hh-b-14" target="hYofHsNvBsbMqg11Hh-b-9">
          <mxGeometry relative="1" as="geometry" />
        </mxCell>
        <mxCell id="hYofHsNvBsbMqg11Hh-b-14" value="" style="aspect=fixed;pointerEvents=1;shadow=0;dashed=0;html=1;strokeColor=none;labelPosition=center;verticalLabelPosition=bottom;verticalAlign=top;align=center;fillColor=#00188D;shape=mxgraph.mscae.enterprise.mouse;sketch=0;fillWeight=3;hachureGap=6;hachureAngle=45;jiggle=1;disableMultiStroke=1;disableMultiStrokeFill=0;curveFitting=0.95;" vertex="1" parent="1">
          <mxGeometry x="295" y="1031" width="30" height="50" as="geometry" />
        </mxCell>
        <mxCell id="hYofHsNvBsbMqg11Hh-b-20" style="edgeStyle=orthogonalEdgeStyle;rounded=0;orthogonalLoop=1;jettySize=auto;html=1;entryX=0.621;entryY=1.108;entryDx=0;entryDy=0;entryPerimeter=0;startArrow=classic;startFill=1;endArrow=classic;endFill=1;" edge="1" parent="1" source="hYofHsNvBsbMqg11Hh-b-15" target="hYofHsNvBsbMqg11Hh-b-9">
          <mxGeometry relative="1" as="geometry" />
        </mxCell>
        <mxCell id="hYofHsNvBsbMqg11Hh-b-15" value="" style="aspect=fixed;html=1;points=[];align=center;image;fontSize=12;image=img/lib/azure2/other/Universal_Print.svg;shadow=0;sketch=0;fillWeight=3;hachureGap=6;hachureAngle=45;jiggle=1;disableMultiStroke=1;disableMultiStrokeFill=0;curveFitting=0.95;fillColor=#FFF4C3;gradientColor=none;" vertex="1" parent="1">
          <mxGeometry x="530" y="1000" width="105" height="90" as="geometry" />
        </mxCell>
        <mxCell id="hYofHsNvBsbMqg11Hh-b-19" style="edgeStyle=orthogonalEdgeStyle;rounded=0;orthogonalLoop=1;jettySize=auto;html=1;entryX=0.39;entryY=0.969;entryDx=0;entryDy=0;entryPerimeter=0;startArrow=classic;startFill=1;endArrow=classic;endFill=1;" edge="1" parent="1" source="hYofHsNvBsbMqg11Hh-b-16" target="hYofHsNvBsbMqg11Hh-b-9">
          <mxGeometry relative="1" as="geometry" />
        </mxCell>
        <mxCell id="hYofHsNvBsbMqg11Hh-b-16" value="" style="verticalLabelPosition=bottom;verticalAlign=top;html=1;shadow=0;dashed=0;strokeWidth=1;shape=mxgraph.android.keyboard;sketch=0;fillWeight=3;hachureGap=6;hachureAngle=45;jiggle=1;disableMultiStroke=1;disableMultiStrokeFill=0;curveFitting=0.95;fillColor=#FFF4C3;gradientColor=none;" vertex="1" parent="1">
          <mxGeometry x="370" y="1010" width="122" height="70" as="geometry" />
        </mxCell>
        <mxCell id="hYofHsNvBsbMqg11Hh-b-24" style="edgeStyle=orthogonalEdgeStyle;orthogonalLoop=1;jettySize=auto;html=1;entryX=0.5;entryY=0;entryDx=0;entryDy=0;startArrow=classic;startFill=1;endArrow=classic;endFill=1;dashed=1;sketch=1;shadow=0;curved=1;disableMultiStroke=1;" edge="1" parent="1" target="hYofHsNvBsbMqg11Hh-b-5">
          <mxGeometry relative="1" as="geometry">
            <mxPoint x="650" y="550" as="sourcePoint" />
          </mxGeometry>
        </mxCell>
        <mxCell id="hYofHsNvBsbMqg11Hh-b-25" value="页表查询" style="edgeLabel;html=1;align=center;verticalAlign=middle;resizable=0;points=[];" vertex="1" connectable="0" parent="hYofHsNvBsbMqg11Hh-b-24">
          <mxGeometry x="0.4041" relative="1" as="geometry">
            <mxPoint as="offset" />
          </mxGeometry>
        </mxCell>
      </root>
    </mxGraphModel>
  </diagram>
  <diagram id="xLRGa_nTmlgrps6bXQVo" name="内存管理">
    <mxGraphModel dx="1422" dy="796" grid="1" gridSize="10" guides="1" tooltips="1" connect="1" arrows="1" fold="1" page="1" pageScale="1" pageWidth="827" pageHeight="1169" math="0" shadow="0">
      <root>
        <mxCell id="QEgf02N0zIg86aXVgp2i-0" />
        <mxCell id="QEgf02N0zIg86aXVgp2i-1" parent="QEgf02N0zIg86aXVgp2i-0" />
        <mxCell id="Ld7mllMB2yx_PC__cStj-18" style="edgeStyle=entityRelationEdgeStyle;sketch=1;disableMultiStroke=1;orthogonalLoop=1;jettySize=auto;html=1;exitX=1;exitY=0;exitDx=0;exitDy=0;entryX=0;entryY=1;entryDx=0;entryDy=0;shadow=0;dashed=1;startArrow=classic;startFill=1;endArrow=classic;endFill=1;" edge="1" parent="QEgf02N0zIg86aXVgp2i-1" source="Ld7mllMB2yx_PC__cStj-5" target="Ld7mllMB2yx_PC__cStj-12">
          <mxGeometry relative="1" as="geometry" />
        </mxCell>
        <mxCell id="Ld7mllMB2yx_PC__cStj-10" value="" style="rounded=0;whiteSpace=wrap;html=1;shadow=0;sketch=1;fillWeight=10;hachureGap=6;hachureAngle=45;jiggle=1;disableMultiStroke=1;disableMultiStrokeFill=0;curveFitting=0.95;fillColor=#fad9d5;strokeColor=#ae4132;" vertex="1" parent="QEgf02N0zIg86aXVgp2i-1">
          <mxGeometry x="415" y="160" width="120" height="100" as="geometry" />
        </mxCell>
        <mxCell id="Ld7mllMB2yx_PC__cStj-11" value="" style="rounded=0;whiteSpace=wrap;html=1;shadow=0;sketch=1;fillWeight=10;hachureGap=6;hachureAngle=45;jiggle=1;disableMultiStroke=1;disableMultiStrokeFill=0;curveFitting=0.95;fillColor=#b1ddf0;strokeColor=#10739e;" vertex="1" parent="QEgf02N0zIg86aXVgp2i-1">
          <mxGeometry x="415" y="260" width="120" height="100" as="geometry" />
        </mxCell>
        <mxCell id="Ld7mllMB2yx_PC__cStj-12" value="" style="rounded=0;whiteSpace=wrap;html=1;shadow=0;sketch=1;fillWeight=10;hachureGap=6;hachureAngle=45;jiggle=1;disableMultiStroke=1;disableMultiStrokeFill=0;curveFitting=0.95;fillColor=#bac8d3;strokeColor=#23445d;" vertex="1" parent="QEgf02N0zIg86aXVgp2i-1">
          <mxGeometry x="415" y="360" width="120" height="100" as="geometry" />
        </mxCell>
        <mxCell id="Ld7mllMB2yx_PC__cStj-13" value="" style="rounded=0;whiteSpace=wrap;html=1;shadow=0;sketch=1;fillWeight=10;hachureGap=6;hachureAngle=45;jiggle=1;disableMultiStroke=1;disableMultiStrokeFill=0;curveFitting=0.95;strokeColor=#d79b00;fillColor=#FFB366;" vertex="1" parent="QEgf02N0zIg86aXVgp2i-1">
          <mxGeometry x="415" y="620" width="120" height="100" as="geometry" />
        </mxCell>
        <mxCell id="Ld7mllMB2yx_PC__cStj-23" value=".&lt;br&gt;.&lt;br&gt;.&lt;br&gt;.&lt;br&gt;.&lt;br&gt;.&lt;br&gt;.&lt;br&gt;.&lt;br&gt;.&lt;br&gt;.&lt;br&gt;" style="rounded=0;whiteSpace=wrap;html=1;shadow=0;sketch=1;fillWeight=10;hachureGap=6;hachureAngle=45;jiggle=1;disableMultiStroke=1;disableMultiStrokeFill=0;curveFitting=0.95;strokeColor=#23445d;fillColor=#FFCCCC;dashed=1;perimeterSpacing=3;strokeWidth=2;" vertex="1" parent="QEgf02N0zIg86aXVgp2i-1">
          <mxGeometry x="415" y="460" width="120" height="160" as="geometry" />
        </mxCell>
        <mxCell id="Ld7mllMB2yx_PC__cStj-0" value="" style="rounded=0;whiteSpace=wrap;html=1;shadow=0;sketch=1;fillWeight=3;hachureGap=5;hachureAngle=45;jiggle=1;disableMultiStroke=1;disableMultiStrokeFill=0;curveFitting=0.95;strokeColor=#b46504;fillColor=#FAD9D5;" vertex="1" parent="QEgf02N0zIg86aXVgp2i-1">
          <mxGeometry x="145" y="220" width="120" height="60" as="geometry" />
        </mxCell>
        <mxCell id="Ld7mllMB2yx_PC__cStj-1" value="" style="rounded=0;whiteSpace=wrap;html=1;shadow=0;sketch=1;fillWeight=3;hachureGap=5;hachureAngle=45;jiggle=1;disableMultiStroke=1;disableMultiStrokeFill=0;curveFitting=0.95;strokeColor=#b46504;fillColor=#B1DDF0;" vertex="1" parent="QEgf02N0zIg86aXVgp2i-1">
          <mxGeometry x="145" y="280" width="120" height="60" as="geometry" />
        </mxCell>
        <mxCell id="Ld7mllMB2yx_PC__cStj-4" value="" style="rounded=0;whiteSpace=wrap;html=1;shadow=0;sketch=1;fillWeight=3;hachureGap=5;hachureAngle=45;jiggle=1;disableMultiStroke=1;disableMultiStrokeFill=0;curveFitting=0.95;strokeColor=#b46504;fillColor=#BAC8D3;" vertex="1" parent="QEgf02N0zIg86aXVgp2i-1">
          <mxGeometry x="145" y="340" width="120" height="60" as="geometry" />
        </mxCell>
        <mxCell id="Ld7mllMB2yx_PC__cStj-5" value="" style="rounded=0;whiteSpace=wrap;html=1;shadow=0;sketch=1;fillWeight=3;hachureGap=5;hachureAngle=-45;jiggle=1;disableMultiStroke=1;disableMultiStrokeFill=0;curveFitting=0.95;strokeColor=#b46504;gradientDirection=north;fillColor=#FFCCCC;dashed=1;strokeWidth=2;" vertex="1" parent="QEgf02N0zIg86aXVgp2i-1">
          <mxGeometry x="145" y="400" width="120" height="240" as="geometry" />
        </mxCell>
        <mxCell id="Ld7mllMB2yx_PC__cStj-9" value="" style="rounded=0;whiteSpace=wrap;html=1;shadow=0;sketch=1;fillWeight=3;hachureGap=5;hachureAngle=45;jiggle=1;disableMultiStroke=1;disableMultiStrokeFill=0;curveFitting=0.95;strokeColor=#b46504;fillColor=#FFB366;" vertex="1" parent="QEgf02N0zIg86aXVgp2i-1">
          <mxGeometry x="145" y="640" width="120" height="60" as="geometry" />
        </mxCell>
        <mxCell id="Ld7mllMB2yx_PC__cStj-24" value="" style="rounded=0;whiteSpace=wrap;html=1;shadow=0;sketch=1;fillWeight=3;hachureGap=5;hachureAngle=-45;jiggle=1;disableMultiStroke=1;disableMultiStrokeFill=0;curveFitting=0.95;strokeWidth=2;fillColor=#FFCCCC;gradientColor=none;" vertex="1" parent="QEgf02N0zIg86aXVgp2i-1">
          <mxGeometry x="745" y="40" width="180" height="740" as="geometry" />
        </mxCell>
        <mxCell id="Ld7mllMB2yx_PC__cStj-25" value="" style="shape=curlyBracket;whiteSpace=wrap;html=1;rounded=1;flipH=1;shadow=0;sketch=1;fillWeight=3;hachureGap=5;hachureAngle=-45;jiggle=1;disableMultiStroke=1;disableMultiStrokeFill=0;curveFitting=0.95;strokeWidth=2;fillColor=#FFCCCC;gradientColor=none;" vertex="1" parent="QEgf02N0zIg86aXVgp2i-1">
          <mxGeometry x="565" y="160" width="20" height="570" as="geometry" />
        </mxCell>
        <mxCell id="Ld7mllMB2yx_PC__cStj-26" value="&lt;font style=&quot;font-size: 14px&quot;&gt;&lt;b&gt;1024张&lt;br&gt;二级页表&lt;/b&gt;&lt;/font&gt;" style="text;html=1;align=center;verticalAlign=middle;resizable=0;points=[];autosize=1;strokeColor=none;" vertex="1" parent="QEgf02N0zIg86aXVgp2i-1">
          <mxGeometry x="600" y="430" width="70" height="30" as="geometry" />
        </mxCell>
        <mxCell id="Ld7mllMB2yx_PC__cStj-27" value="" style="shape=curlyBracket;whiteSpace=wrap;html=1;rounded=1;shadow=0;sketch=1;fillWeight=3;hachureGap=5;hachureAngle=-45;jiggle=1;disableMultiStroke=1;disableMultiStrokeFill=0;curveFitting=0.95;strokeWidth=2;fillColor=#FFCCCC;gradientColor=none;" vertex="1" parent="QEgf02N0zIg86aXVgp2i-1">
          <mxGeometry x="105" y="220" width="20" height="480" as="geometry" />
        </mxCell>
        <mxCell id="Ld7mllMB2yx_PC__cStj-28" value="&lt;font style=&quot;font-size: 14px&quot;&gt;&lt;b&gt;1张&lt;br&gt;一级页表&lt;/b&gt;&lt;/font&gt;" style="text;html=1;align=center;verticalAlign=middle;resizable=0;points=[];autosize=1;strokeColor=none;" vertex="1" parent="QEgf02N0zIg86aXVgp2i-1">
          <mxGeometry x="40" y="445" width="70" height="30" as="geometry" />
        </mxCell>
        <mxCell id="Ld7mllMB2yx_PC__cStj-29" value="&#xa;&#xa;&lt;span style=&quot;color: rgba(0, 0, 0, 0); font-family: monospace; font-size: 0px; font-style: normal; font-weight: 400; letter-spacing: normal; text-indent: 0px; text-transform: none; word-spacing: 0px; background-color: rgb(248, 249, 250); display: inline; float: none;&quot;&gt;&amp;nbsp;&lt;/span&gt;&#xa;&#xa;" style="endArrow=none;html=1;shadow=0;dashed=1;entryX=0.997;entryY=0.049;entryDx=0;entryDy=0;entryPerimeter=0;exitX=0;exitY=0.048;exitDx=0;exitDy=0;exitPerimeter=0;strokeWidth=2;" edge="1" parent="QEgf02N0zIg86aXVgp2i-1" source="Ld7mllMB2yx_PC__cStj-24" target="Ld7mllMB2yx_PC__cStj-24">
          <mxGeometry width="50" height="50" relative="1" as="geometry">
            <mxPoint x="615" y="260" as="sourcePoint" />
            <mxPoint x="665" y="210" as="targetPoint" />
          </mxGeometry>
        </mxCell>
        <mxCell id="Ld7mllMB2yx_PC__cStj-30" value="&#xa;&#xa;&lt;span style=&quot;color: rgba(0, 0, 0, 0); font-family: monospace; font-size: 0px; font-style: normal; font-weight: 400; letter-spacing: normal; text-indent: 0px; text-transform: none; word-spacing: 0px; background-color: rgb(248, 249, 250); display: inline; float: none;&quot;&gt;&amp;nbsp;&lt;/span&gt;&#xa;&#xa;" style="endArrow=none;html=1;shadow=0;dashed=1;entryX=1.001;entryY=0.097;entryDx=0;entryDy=0;entryPerimeter=0;exitX=0;exitY=0.048;exitDx=0;exitDy=0;exitPerimeter=0;strokeWidth=2;" edge="1" parent="QEgf02N0zIg86aXVgp2i-1" target="Ld7mllMB2yx_PC__cStj-24">
          <mxGeometry width="50" height="50" relative="1" as="geometry">
            <mxPoint x="745.72" y="112.21999999999976" as="sourcePoint" />
            <mxPoint x="925" y="109.99999999999973" as="targetPoint" />
          </mxGeometry>
        </mxCell>
        <mxCell id="Ld7mllMB2yx_PC__cStj-31" value="&#xa;&#xa;&lt;span style=&quot;color: rgba(0, 0, 0, 0); font-family: monospace; font-size: 0px; font-style: normal; font-weight: 400; letter-spacing: normal; text-indent: 0px; text-transform: none; word-spacing: 0px; background-color: rgb(248, 249, 250); display: inline; float: none;&quot;&gt;&amp;nbsp;&lt;/span&gt;&#xa;&#xa;" style="endArrow=none;html=1;shadow=0;dashed=1;entryX=1.001;entryY=0.097;entryDx=0;entryDy=0;entryPerimeter=0;exitX=0;exitY=0.048;exitDx=0;exitDy=0;exitPerimeter=0;strokeWidth=2;" edge="1" parent="QEgf02N0zIg86aXVgp2i-1">
          <mxGeometry width="50" height="50" relative="1" as="geometry">
            <mxPoint x="745" y="150.4399999999998" as="sourcePoint" />
            <mxPoint x="924.46" y="150.0000000000002" as="targetPoint" />
          </mxGeometry>
        </mxCell>
        <mxCell id="Ld7mllMB2yx_PC__cStj-32" value="&#xa;&#xa;&lt;span style=&quot;color: rgba(0, 0, 0, 0); font-family: monospace; font-size: 0px; font-style: normal; font-weight: 400; letter-spacing: normal; text-indent: 0px; text-transform: none; word-spacing: 0px; background-color: rgb(248, 249, 250); display: inline; float: none;&quot;&gt;&amp;nbsp;&lt;/span&gt;&#xa;&#xa;" style="endArrow=none;html=1;shadow=0;dashed=1;entryX=1.001;entryY=0.097;entryDx=0;entryDy=0;entryPerimeter=0;exitX=0;exitY=0.048;exitDx=0;exitDy=0;exitPerimeter=0;strokeWidth=2;" edge="1" parent="QEgf02N0zIg86aXVgp2i-1">
          <mxGeometry width="50" height="50" relative="1" as="geometry">
            <mxPoint x="745" y="290.4399999999998" as="sourcePoint" />
            <mxPoint x="924.46" y="290.0000000000002" as="targetPoint" />
          </mxGeometry>
        </mxCell>
        <mxCell id="Ld7mllMB2yx_PC__cStj-33" value="&#xa;&#xa;&lt;span style=&quot;color: rgba(0, 0, 0, 0); font-family: monospace; font-size: 0px; font-style: normal; font-weight: 400; letter-spacing: normal; text-indent: 0px; text-transform: none; word-spacing: 0px; background-color: rgb(248, 249, 250); display: inline; float: none;&quot;&gt;&amp;nbsp;&lt;/span&gt;&#xa;&#xa;" style="endArrow=none;html=1;shadow=0;dashed=1;entryX=1.001;entryY=0.097;entryDx=0;entryDy=0;entryPerimeter=0;exitX=0;exitY=0.048;exitDx=0;exitDy=0;exitPerimeter=0;strokeWidth=2;" edge="1" parent="QEgf02N0zIg86aXVgp2i-1">
          <mxGeometry width="50" height="50" relative="1" as="geometry">
            <mxPoint x="745.27" y="330.4399999999998" as="sourcePoint" />
            <mxPoint x="924.73" y="330.0000000000002" as="targetPoint" />
          </mxGeometry>
        </mxCell>
        <mxCell id="Ld7mllMB2yx_PC__cStj-34" value="&#xa;&#xa;&lt;span style=&quot;color: rgba(0, 0, 0, 0); font-family: monospace; font-size: 0px; font-style: normal; font-weight: 400; letter-spacing: normal; text-indent: 0px; text-transform: none; word-spacing: 0px; background-color: rgb(248, 249, 250); display: inline; float: none;&quot;&gt;&amp;nbsp;&lt;/span&gt;&#xa;&#xa;" style="endArrow=none;html=1;shadow=0;dashed=1;entryX=1.001;entryY=0.097;entryDx=0;entryDy=0;entryPerimeter=0;exitX=0;exitY=0.048;exitDx=0;exitDy=0;exitPerimeter=0;strokeWidth=2;" edge="1" parent="QEgf02N0zIg86aXVgp2i-1">
          <mxGeometry width="50" height="50" relative="1" as="geometry">
            <mxPoint x="745" y="369.9399999999996" as="sourcePoint" />
            <mxPoint x="924.46" y="369.5" as="targetPoint" />
          </mxGeometry>
        </mxCell>
        <mxCell id="Ld7mllMB2yx_PC__cStj-35" value="&#xa;&#xa;&lt;span style=&quot;color: rgba(0, 0, 0, 0); font-family: monospace; font-size: 0px; font-style: normal; font-weight: 400; letter-spacing: normal; text-indent: 0px; text-transform: none; word-spacing: 0px; background-color: rgb(248, 249, 250); display: inline; float: none;&quot;&gt;&amp;nbsp;&lt;/span&gt;&#xa;&#xa;" style="endArrow=none;html=1;shadow=0;dashed=1;entryX=1.001;entryY=0.097;entryDx=0;entryDy=0;entryPerimeter=0;exitX=0;exitY=0.048;exitDx=0;exitDy=0;exitPerimeter=0;strokeWidth=2;" edge="1" parent="QEgf02N0zIg86aXVgp2i-1">
          <mxGeometry width="50" height="50" relative="1" as="geometry">
            <mxPoint x="745" y="409.9399999999996" as="sourcePoint" />
            <mxPoint x="924.46" y="409.5" as="targetPoint" />
          </mxGeometry>
        </mxCell>
        <mxCell id="Ld7mllMB2yx_PC__cStj-36" value="" style="endArrow=none;html=1;shadow=0;dashed=1;strokeWidth=1;exitX=0.003;exitY=0.12;exitDx=0;exitDy=0;exitPerimeter=0;entryX=1.001;entryY=0.11;entryDx=0;entryDy=0;entryPerimeter=0;dashPattern=1 1;" edge="1" parent="QEgf02N0zIg86aXVgp2i-1" source="Ld7mllMB2yx_PC__cStj-10" target="Ld7mllMB2yx_PC__cStj-10">
          <mxGeometry width="50" height="50" relative="1" as="geometry">
            <mxPoint x="505" y="220" as="sourcePoint" />
            <mxPoint x="555" y="170" as="targetPoint" />
          </mxGeometry>
        </mxCell>
        <mxCell id="Ld7mllMB2yx_PC__cStj-37" value="" style="endArrow=none;html=1;shadow=0;dashed=1;strokeWidth=1;exitX=0.007;exitY=0.169;exitDx=0;exitDy=0;exitPerimeter=0;entryX=1;entryY=0.158;entryDx=0;entryDy=0;entryPerimeter=0;dashPattern=1 1;" edge="1" parent="QEgf02N0zIg86aXVgp2i-1">
          <mxGeometry width="50" height="50" relative="1" as="geometry">
            <mxPoint x="415.4199999999999" y="191.10000000000008" as="sourcePoint" />
            <mxPoint x="534.58" y="189.99999999999994" as="targetPoint" />
          </mxGeometry>
        </mxCell>
        <mxCell id="Ld7mllMB2yx_PC__cStj-38" value="" style="endArrow=none;html=1;shadow=0;dashed=1;strokeWidth=1;exitX=0.007;exitY=0.169;exitDx=0;exitDy=0;exitPerimeter=0;entryX=1;entryY=0.158;entryDx=0;entryDy=0;entryPerimeter=0;dashPattern=1 1;" edge="1" parent="QEgf02N0zIg86aXVgp2i-1">
          <mxGeometry width="50" height="50" relative="1" as="geometry">
            <mxPoint x="415.8399999999998" y="201.10000000000014" as="sourcePoint" />
            <mxPoint x="535.0000000000002" y="200" as="targetPoint" />
          </mxGeometry>
        </mxCell>
        <mxCell id="Ld7mllMB2yx_PC__cStj-39" value="" style="endArrow=none;html=1;shadow=0;dashed=1;strokeWidth=1;exitX=0.007;exitY=0.169;exitDx=0;exitDy=0;exitPerimeter=0;entryX=1;entryY=0.158;entryDx=0;entryDy=0;entryPerimeter=0;dashPattern=1 1;" edge="1" parent="QEgf02N0zIg86aXVgp2i-1">
          <mxGeometry width="50" height="50" relative="1" as="geometry">
            <mxPoint x="415.84000000000003" y="181.09999999999985" as="sourcePoint" />
            <mxPoint x="535" y="179.99999999999994" as="targetPoint" />
          </mxGeometry>
        </mxCell>
        <mxCell id="Ld7mllMB2yx_PC__cStj-16" style="edgeStyle=entityRelationEdgeStyle;sketch=1;disableMultiStroke=1;orthogonalLoop=1;jettySize=auto;html=1;exitX=1;exitY=0;exitDx=0;exitDy=0;entryX=0;entryY=1;entryDx=0;entryDy=0;shadow=0;dashed=1;startArrow=classic;startFill=1;endArrow=classic;endFill=1;" edge="1" parent="QEgf02N0zIg86aXVgp2i-1" source="Ld7mllMB2yx_PC__cStj-1" target="Ld7mllMB2yx_PC__cStj-10">
          <mxGeometry relative="1" as="geometry" />
        </mxCell>
        <mxCell id="Ld7mllMB2yx_PC__cStj-17" style="edgeStyle=entityRelationEdgeStyle;sketch=1;disableMultiStroke=1;orthogonalLoop=1;jettySize=auto;html=1;exitX=1;exitY=0;exitDx=0;exitDy=0;entryX=0;entryY=0;entryDx=0;entryDy=0;shadow=0;dashed=1;startArrow=classic;startFill=1;endArrow=classic;endFill=1;" edge="1" parent="QEgf02N0zIg86aXVgp2i-1" source="Ld7mllMB2yx_PC__cStj-4" target="Ld7mllMB2yx_PC__cStj-12">
          <mxGeometry relative="1" as="geometry" />
        </mxCell>
        <mxCell id="Ld7mllMB2yx_PC__cStj-15" style="sketch=1;disableMultiStroke=1;orthogonalLoop=1;jettySize=auto;html=1;exitX=1;exitY=0;exitDx=0;exitDy=0;entryX=0;entryY=0;entryDx=0;entryDy=0;shadow=0;dashed=1;startArrow=classic;startFill=1;endArrow=classic;endFill=1;edgeStyle=entityRelationEdgeStyle;" edge="1" parent="QEgf02N0zIg86aXVgp2i-1" source="Ld7mllMB2yx_PC__cStj-0" target="Ld7mllMB2yx_PC__cStj-10">
          <mxGeometry relative="1" as="geometry" />
        </mxCell>
        <mxCell id="Ld7mllMB2yx_PC__cStj-21" style="edgeStyle=entityRelationEdgeStyle;sketch=1;disableMultiStroke=1;orthogonalLoop=1;jettySize=auto;html=1;exitX=1;exitY=0;exitDx=0;exitDy=0;entryX=0;entryY=0;entryDx=0;entryDy=0;shadow=0;dashed=1;startArrow=classic;startFill=1;endArrow=classic;endFill=1;" edge="1" parent="QEgf02N0zIg86aXVgp2i-1" source="Ld7mllMB2yx_PC__cStj-9" target="Ld7mllMB2yx_PC__cStj-13">
          <mxGeometry relative="1" as="geometry" />
        </mxCell>
        <mxCell id="Ld7mllMB2yx_PC__cStj-22" style="edgeStyle=entityRelationEdgeStyle;sketch=1;disableMultiStroke=1;orthogonalLoop=1;jettySize=auto;html=1;exitX=1;exitY=1;exitDx=0;exitDy=0;entryX=0;entryY=1;entryDx=0;entryDy=0;shadow=0;dashed=1;startArrow=classic;startFill=1;endArrow=classic;endFill=1;" edge="1" parent="QEgf02N0zIg86aXVgp2i-1" source="Ld7mllMB2yx_PC__cStj-9" target="Ld7mllMB2yx_PC__cStj-13">
          <mxGeometry relative="1" as="geometry" />
        </mxCell>
        <mxCell id="Ld7mllMB2yx_PC__cStj-43" value="" style="shape=curlyBracket;whiteSpace=wrap;html=1;rounded=1;shadow=0;sketch=1;fillWeight=3;hachureGap=5;hachureAngle=-45;jiggle=1;disableMultiStroke=1;disableMultiStrokeFill=0;curveFitting=0.95;strokeWidth=1;fillColor=#FFCCCC;gradientColor=none;strokeColor=#0000FF;rotation=-1;size=0.5;" vertex="1" parent="QEgf02N0zIg86aXVgp2i-1">
          <mxGeometry x="394.97" y="164" width="19.91" height="90" as="geometry" />
        </mxCell>
        <mxCell id="Ld7mllMB2yx_PC__cStj-45" value="1张二级页表&lt;br&gt;1024个条目" style="text;html=1;align=center;verticalAlign=middle;resizable=0;points=[];autosize=1;strokeColor=none;fontSize=14;fontStyle=1" vertex="1" parent="QEgf02N0zIg86aXVgp2i-1">
          <mxGeometry x="315" y="210" width="90" height="40" as="geometry" />
        </mxCell>
        <mxCell id="Ld7mllMB2yx_PC__cStj-46" value="" style="endArrow=classic;html=1;shadow=0;fontSize=14;strokeWidth=1;entryX=0;entryY=0.027;entryDx=0;entryDy=0;entryPerimeter=0;sketch=0;curved=1;exitX=1.002;exitY=0.036;exitDx=0;exitDy=0;exitPerimeter=0;strokeColor=#9999FF;" edge="1" parent="QEgf02N0zIg86aXVgp2i-1" source="Ld7mllMB2yx_PC__cStj-10" target="Ld7mllMB2yx_PC__cStj-24">
          <mxGeometry width="50" height="50" relative="1" as="geometry">
            <mxPoint x="545" y="160" as="sourcePoint" />
            <mxPoint x="615" y="160" as="targetPoint" />
          </mxGeometry>
        </mxCell>
        <mxCell id="Ld7mllMB2yx_PC__cStj-47" value="" style="endArrow=classic;html=1;shadow=0;fontSize=14;strokeWidth=1;entryX=-0.011;entryY=0.073;entryDx=0;entryDy=0;entryPerimeter=0;sketch=0;curved=1;exitX=1.009;exitY=0.157;exitDx=0;exitDy=0;exitPerimeter=0;strokeColor=#9999FF;" edge="1" parent="QEgf02N0zIg86aXVgp2i-1" source="Ld7mllMB2yx_PC__cStj-10" target="Ld7mllMB2yx_PC__cStj-24">
          <mxGeometry width="50" height="50" relative="1" as="geometry">
            <mxPoint x="545.24" y="173.5999999999999" as="sourcePoint" />
            <mxPoint x="755" y="69.98000000000002" as="targetPoint" />
          </mxGeometry>
        </mxCell>
        <mxCell id="Ld7mllMB2yx_PC__cStj-48" value="" style="endArrow=classic;html=1;shadow=0;fontSize=14;strokeWidth=1;entryX=-0.003;entryY=0.123;entryDx=0;entryDy=0;entryPerimeter=0;sketch=0;curved=1;exitX=1;exitY=0.25;exitDx=0;exitDy=0;strokeColor=#9999FF;" edge="1" parent="QEgf02N0zIg86aXVgp2i-1" source="Ld7mllMB2yx_PC__cStj-10" target="Ld7mllMB2yx_PC__cStj-24">
          <mxGeometry width="50" height="50" relative="1" as="geometry">
            <mxPoint x="546.0799999999999" y="185.70000000000005" as="sourcePoint" />
            <mxPoint x="753.02" y="104.01999999999998" as="targetPoint" />
          </mxGeometry>
        </mxCell>
        <mxCell id="Ld7mllMB2yx_PC__cStj-49" value="" style="endArrow=classic;html=1;shadow=0;fontSize=14;strokeColor=#9999FF;strokeWidth=1;entryX=-0.009;entryY=0.36;entryDx=0;entryDy=0;entryPerimeter=0;exitX=0.99;exitY=0.063;exitDx=0;exitDy=0;exitPerimeter=0;" edge="1" parent="QEgf02N0zIg86aXVgp2i-1" source="Ld7mllMB2yx_PC__cStj-12" target="Ld7mllMB2yx_PC__cStj-24">
          <mxGeometry width="50" height="50" relative="1" as="geometry">
            <mxPoint x="605" y="340" as="sourcePoint" />
            <mxPoint x="655" y="290" as="targetPoint" />
          </mxGeometry>
        </mxCell>
        <mxCell id="Ld7mllMB2yx_PC__cStj-50" value="" style="endArrow=classic;html=1;shadow=0;fontSize=14;strokeColor=#9999FF;strokeWidth=1;exitX=1.012;exitY=0.155;exitDx=0;exitDy=0;exitPerimeter=0;" edge="1" parent="QEgf02N0zIg86aXVgp2i-1" source="Ld7mllMB2yx_PC__cStj-12">
          <mxGeometry width="50" height="50" relative="1" as="geometry">
            <mxPoint x="543.8000000000001" y="376.29999999999995" as="sourcePoint" />
            <mxPoint x="745" y="350" as="targetPoint" />
          </mxGeometry>
        </mxCell>
        <mxCell id="Ld7mllMB2yx_PC__cStj-51" value="" style="endArrow=classic;html=1;shadow=0;fontSize=14;strokeColor=#9999FF;strokeWidth=1;exitX=1;exitY=0.25;exitDx=0;exitDy=0;entryX=0.006;entryY=0.475;entryDx=0;entryDy=0;entryPerimeter=0;" edge="1" parent="QEgf02N0zIg86aXVgp2i-1" source="Ld7mllMB2yx_PC__cStj-12" target="Ld7mllMB2yx_PC__cStj-24">
          <mxGeometry width="50" height="50" relative="1" as="geometry">
            <mxPoint x="546.44" y="385.5" as="sourcePoint" />
            <mxPoint x="755" y="360" as="targetPoint" />
          </mxGeometry>
        </mxCell>
        <mxCell id="Ld7mllMB2yx_PC__cStj-52" value="&#xa;&#xa;&lt;span style=&quot;color: rgba(0, 0, 0, 0); font-family: monospace; font-size: 0px; font-style: normal; font-weight: 400; letter-spacing: normal; text-indent: 0px; text-transform: none; word-spacing: 0px; background-color: rgb(248, 249, 250); display: inline; float: none;&quot;&gt;&amp;nbsp;&lt;/span&gt;&#xa;&#xa;" style="endArrow=none;html=1;shadow=0;dashed=1;entryX=1.001;entryY=0.097;entryDx=0;entryDy=0;entryPerimeter=0;exitX=0;exitY=0.048;exitDx=0;exitDy=0;exitPerimeter=0;strokeWidth=2;" edge="1" parent="QEgf02N0zIg86aXVgp2i-1">
          <mxGeometry width="50" height="50" relative="1" as="geometry">
            <mxPoint x="745.54" y="690.4399999999996" as="sourcePoint" />
            <mxPoint x="925" y="690" as="targetPoint" />
          </mxGeometry>
        </mxCell>
        <mxCell id="Ld7mllMB2yx_PC__cStj-53" value="&#xa;&#xa;&lt;span style=&quot;color: rgba(0, 0, 0, 0); font-family: monospace; font-size: 0px; font-style: normal; font-weight: 400; letter-spacing: normal; text-indent: 0px; text-transform: none; word-spacing: 0px; background-color: rgb(248, 249, 250); display: inline; float: none;&quot;&gt;&amp;nbsp;&lt;/span&gt;&#xa;&#xa;" style="endArrow=none;html=1;shadow=0;dashed=1;entryX=1.001;entryY=0.097;entryDx=0;entryDy=0;entryPerimeter=0;exitX=0;exitY=0.048;exitDx=0;exitDy=0;exitPerimeter=0;strokeWidth=2;" edge="1" parent="QEgf02N0zIg86aXVgp2i-1">
          <mxGeometry width="50" height="50" relative="1" as="geometry">
            <mxPoint x="745" y="720.4399999999996" as="sourcePoint" />
            <mxPoint x="924.46" y="720" as="targetPoint" />
          </mxGeometry>
        </mxCell>
        <mxCell id="Ld7mllMB2yx_PC__cStj-54" value="&#xa;&#xa;&lt;span style=&quot;color: rgba(0, 0, 0, 0); font-family: monospace; font-size: 0px; font-style: normal; font-weight: 400; letter-spacing: normal; text-indent: 0px; text-transform: none; word-spacing: 0px; background-color: rgb(248, 249, 250); display: inline; float: none;&quot;&gt;&amp;nbsp;&lt;/span&gt;&#xa;&#xa;" style="endArrow=none;html=1;shadow=0;dashed=1;entryX=1.001;entryY=0.097;entryDx=0;entryDy=0;entryPerimeter=0;exitX=0;exitY=0.048;exitDx=0;exitDy=0;exitPerimeter=0;strokeWidth=2;" edge="1" parent="QEgf02N0zIg86aXVgp2i-1">
          <mxGeometry width="50" height="50" relative="1" as="geometry">
            <mxPoint x="745" y="750.4399999999996" as="sourcePoint" />
            <mxPoint x="924.46" y="750" as="targetPoint" />
          </mxGeometry>
        </mxCell>
        <mxCell id="Ld7mllMB2yx_PC__cStj-55" value="&#xa;&#xa;&lt;span style=&quot;color: rgba(0, 0, 0, 0); font-family: monospace; font-size: 0px; font-style: normal; font-weight: 400; letter-spacing: normal; text-indent: 0px; text-transform: none; word-spacing: 0px; background-color: rgb(248, 249, 250); display: inline; float: none;&quot;&gt;&amp;nbsp;&lt;/span&gt;&#xa;&#xa;" style="endArrow=none;html=1;shadow=0;dashed=1;entryX=1.001;entryY=0.097;entryDx=0;entryDy=0;entryPerimeter=0;exitX=0;exitY=0.048;exitDx=0;exitDy=0;exitPerimeter=0;strokeWidth=2;" edge="1" parent="QEgf02N0zIg86aXVgp2i-1">
          <mxGeometry width="50" height="50" relative="1" as="geometry">
            <mxPoint x="745.5399999999997" y="660.4399999999996" as="sourcePoint" />
            <mxPoint x="925" y="660" as="targetPoint" />
          </mxGeometry>
        </mxCell>
        <mxCell id="Ld7mllMB2yx_PC__cStj-56" value="" style="endArrow=classic;html=1;shadow=0;fontSize=14;strokeColor=#9999FF;strokeWidth=1;entryX=0.005;entryY=0.978;entryDx=0;entryDy=0;entryPerimeter=0;exitX=1.007;exitY=0.956;exitDx=0;exitDy=0;exitPerimeter=0;" edge="1" parent="QEgf02N0zIg86aXVgp2i-1" source="Ld7mllMB2yx_PC__cStj-13" target="Ld7mllMB2yx_PC__cStj-24">
          <mxGeometry width="50" height="50" relative="1" as="geometry">
            <mxPoint x="645" y="730" as="sourcePoint" />
            <mxPoint x="695" y="680" as="targetPoint" />
          </mxGeometry>
        </mxCell>
        <mxCell id="Ld7mllMB2yx_PC__cStj-57" value="" style="endArrow=classic;html=1;shadow=0;fontSize=14;strokeColor=#9999FF;strokeWidth=1;entryX=-0.009;entryY=0.941;entryDx=0;entryDy=0;entryPerimeter=0;exitX=1;exitY=0.9;exitDx=0;exitDy=0;exitPerimeter=0;" edge="1" parent="QEgf02N0zIg86aXVgp2i-1" source="Ld7mllMB2yx_PC__cStj-13" target="Ld7mllMB2yx_PC__cStj-24">
          <mxGeometry width="50" height="50" relative="1" as="geometry">
            <mxPoint x="547.52" y="721.9000000000001" as="sourcePoint" />
            <mxPoint x="755.9000000000001" y="773.7200000000003" as="targetPoint" />
          </mxGeometry>
        </mxCell>
        <mxCell id="Ld7mllMB2yx_PC__cStj-58" value="" style="endArrow=classic;html=1;shadow=0;fontSize=14;strokeColor=#9999FF;strokeWidth=1;entryX=-0.003;entryY=0.903;entryDx=0;entryDy=0;entryPerimeter=0;exitX=1.005;exitY=0.869;exitDx=0;exitDy=0;exitPerimeter=0;" edge="1" parent="QEgf02N0zIg86aXVgp2i-1" source="Ld7mllMB2yx_PC__cStj-13" target="Ld7mllMB2yx_PC__cStj-24">
          <mxGeometry width="50" height="50" relative="1" as="geometry">
            <mxPoint x="557.52" y="731.9000000000001" as="sourcePoint" />
            <mxPoint x="753.3799999999999" y="746.3400000000001" as="targetPoint" />
          </mxGeometry>
        </mxCell>
        <mxCell id="Ld7mllMB2yx_PC__cStj-59" value="" style="endArrow=classic;html=1;shadow=0;fontSize=14;strokeColor=#9999FF;strokeWidth=1;entryX=0.001;entryY=0.861;entryDx=0;entryDy=0;entryPerimeter=0;exitX=1.012;exitY=0.827;exitDx=0;exitDy=0;exitPerimeter=0;" edge="1" parent="QEgf02N0zIg86aXVgp2i-1" source="Ld7mllMB2yx_PC__cStj-13" target="Ld7mllMB2yx_PC__cStj-24">
          <mxGeometry width="50" height="50" relative="1" as="geometry">
            <mxPoint x="567.52" y="741.9000000000001" as="sourcePoint" />
            <mxPoint x="754.46" y="718.2200000000003" as="targetPoint" />
          </mxGeometry>
        </mxCell>
        <mxCell id="Ld7mllMB2yx_PC__cStj-60" value="1张页表4K大小" style="text;html=1;align=center;verticalAlign=middle;resizable=0;points=[];autosize=1;strokeColor=none;fontSize=14;fontColor=#3333FF;fontStyle=1" vertex="1" parent="QEgf02N0zIg86aXVgp2i-1">
          <mxGeometry x="780" y="380" width="110" height="20" as="geometry" />
        </mxCell>
        <mxCell id="Ld7mllMB2yx_PC__cStj-61" value="" style="shape=curlyBracket;whiteSpace=wrap;html=1;rounded=1;flipH=1;shadow=0;sketch=1;fillWeight=3;hachureGap=5;hachureAngle=-45;jiggle=1;disableMultiStroke=1;disableMultiStrokeFill=0;curveFitting=0.95;fontSize=14;fontColor=#3333FF;strokeWidth=2;fillColor=#FFCCCC;gradientColor=none;strokeColor=#1A1A1A;" vertex="1" parent="QEgf02N0zIg86aXVgp2i-1">
          <mxGeometry x="955" y="44" width="20" height="736" as="geometry" />
        </mxCell>
        <mxCell id="Ld7mllMB2yx_PC__cStj-62" value="4G的虚拟内存空间：包含100万张大小为4K的页表" style="text;html=1;align=center;verticalAlign=middle;resizable=0;points=[];autosize=1;strokeColor=none;fontSize=20;fontColor=#3333FF;fontStyle=1;rotation=0;labelBorderColor=none;labelPosition=center;verticalLabelPosition=middle;textDirection=ltr;" vertex="1" parent="QEgf02N0zIg86aXVgp2i-1">
          <mxGeometry x="110" y="50" width="460" height="30" as="geometry" />
        </mxCell>
        <mxCell id="Ld7mllMB2yx_PC__cStj-63" value="一级页表" style="text;html=1;align=center;verticalAlign=middle;resizable=0;points=[];autosize=1;strokeColor=none;fontSize=20;fontColor=#3333FF;fontStyle=1" vertex="1" parent="QEgf02N0zIg86aXVgp2i-1">
          <mxGeometry x="145" y="800" width="100" height="30" as="geometry" />
        </mxCell>
        <mxCell id="Ld7mllMB2yx_PC__cStj-64" value="二级页表" style="text;html=1;align=center;verticalAlign=middle;resizable=0;points=[];autosize=1;strokeColor=none;fontSize=20;fontColor=#3333FF;fontStyle=1" vertex="1" parent="QEgf02N0zIg86aXVgp2i-1">
          <mxGeometry x="419" y="800" width="100" height="30" as="geometry" />
        </mxCell>
        <mxCell id="Ld7mllMB2yx_PC__cStj-65" value="4G虚拟内存空间" style="text;html=1;align=center;verticalAlign=middle;resizable=0;points=[];autosize=1;strokeColor=none;fontSize=20;fontColor=#3333FF;fontStyle=1" vertex="1" parent="QEgf02N0zIg86aXVgp2i-1">
          <mxGeometry x="760" y="800" width="160" height="30" as="geometry" />
        </mxCell>
      </root>
    </mxGraphModel>
  </diagram>
  <diagram id="WY6kClbHrL8J8mtGhh5y" name="进程和线程">
    <mxGraphModel dx="1422" dy="762" grid="1" gridSize="10" guides="1" tooltips="1" connect="1" arrows="1" fold="1" page="1" pageScale="1" pageWidth="827" pageHeight="1169" math="0" shadow="0">
      <root>
        <mxCell id="WzJBLU8U2ZF-W4BaIPhQ-0" />
        <mxCell id="WzJBLU8U2ZF-W4BaIPhQ-1" parent="WzJBLU8U2ZF-W4BaIPhQ-0" />
      </root>
    </mxGraphModel>
  </diagram>
  <diagram id="MaRQQIabfSJm25hH8_wx" name="调度算法">
    <mxGraphModel dx="1422" dy="762" grid="1" gridSize="10" guides="1" tooltips="1" connect="1" arrows="1" fold="1" page="1" pageScale="1" pageWidth="827" pageHeight="1169" math="0" shadow="0">
      <root>
        <mxCell id="DPruceKT4zLQYiLaNQUA-0" />
        <mxCell id="DPruceKT4zLQYiLaNQUA-1" parent="DPruceKT4zLQYiLaNQUA-0" />
      </root>
    </mxGraphModel>
  </diagram>
  <diagram id="jKa-bfqboNmIPDcmVKV7" name="文件系统">
    <mxGraphModel dx="1422" dy="762" grid="1" gridSize="10" guides="1" tooltips="1" connect="1" arrows="1" fold="1" page="1" pageScale="1" pageWidth="827" pageHeight="1169" math="0" shadow="0">
      <root>
        <mxCell id="_7FBScuHLmBfXxVg2PXr-0" />
        <mxCell id="_7FBScuHLmBfXxVg2PXr-1" parent="_7FBScuHLmBfXxVg2PXr-0" />
      </root>
    </mxGraphModel>
  </diagram>
  <diagram id="XxBzGSkjDDGfqON9Mw7p" name="网络系统">
    <mxGraphModel dx="1422" dy="762" grid="1" gridSize="10" guides="1" tooltips="1" connect="1" arrows="1" fold="1" page="1" pageScale="1" pageWidth="827" pageHeight="1169" math="0" shadow="0">
      <root>
        <mxCell id="25pWcEv39J_jmmNKtJcE-0" />
        <mxCell id="25pWcEv39J_jmmNKtJcE-1" parent="25pWcEv39J_jmmNKtJcE-0" />
      </root>
    </mxGraphModel>
  </diagram>
  <diagram id="77Y9Pc_CECw3oCGouw3b" name="小作品">
    <mxGraphModel dx="1564" dy="966" grid="1" gridSize="10" guides="1" tooltips="1" connect="1" arrows="1" fold="1" page="1" pageScale="1" pageWidth="827" pageHeight="1169" math="0" shadow="0">
      <root>
        <mxCell id="V5bLH1JIqrHtPMcGAUPl-0" />
        <mxCell id="V5bLH1JIqrHtPMcGAUPl-1" parent="V5bLH1JIqrHtPMcGAUPl-0" />
        <mxCell id="VRI0krLwx5ahVGxfG7Ba-0" style="edgeStyle=orthogonalEdgeStyle;curved=0;rounded=1;sketch=1;orthogonalLoop=1;jettySize=auto;html=1;entryX=0.319;entryY=0.001;entryDx=0;entryDy=0;entryPerimeter=0;shadow=0;fontColor=#000033;strokeColor=#6666FF;" edge="1" parent="V5bLH1JIqrHtPMcGAUPl-1" source="VRI0krLwx5ahVGxfG7Ba-11" target="VRI0krLwx5ahVGxfG7Ba-2">
          <mxGeometry relative="1" as="geometry" />
        </mxCell>
        <mxCell id="VRI0krLwx5ahVGxfG7Ba-1" style="edgeStyle=orthogonalEdgeStyle;rounded=0;orthogonalLoop=1;jettySize=auto;html=1;entryX=0.5;entryY=0;entryDx=0;entryDy=0;" edge="1" parent="V5bLH1JIqrHtPMcGAUPl-1" source="VRI0krLwx5ahVGxfG7Ba-2" target="VRI0krLwx5ahVGxfG7Ba-73">
          <mxGeometry relative="1" as="geometry" />
        </mxCell>
        <mxCell id="VRI0krLwx5ahVGxfG7Ba-2" value="统一共享高速缓存(L3)" style="rounded=1;whiteSpace=wrap;html=1;shadow=0;sketch=1;fontColor=#000033;strokeColor=#0F0F4D;fillStyle=auto;perimeterSpacing=0;glass=0;fillWeight=2;disableMultiStroke=1;fillOpacity=50;strokeOpacity=80;jiggle=1;hachureAngle=45;hachureGap=-10;fillColor=#FFCE9F;" vertex="1" parent="V5bLH1JIqrHtPMcGAUPl-1">
          <mxGeometry x="190" y="710" width="380" height="40" as="geometry" />
        </mxCell>
        <mxCell id="VRI0krLwx5ahVGxfG7Ba-3" value="" style="group" vertex="1" connectable="0" parent="V5bLH1JIqrHtPMcGAUPl-1">
          <mxGeometry x="110" y="350" width="545" height="310" as="geometry" />
        </mxCell>
        <mxCell id="VRI0krLwx5ahVGxfG7Ba-4" value="寄存器" style="rounded=0;whiteSpace=wrap;html=1;shadow=0;sketch=1;strokeColor=#36393d;fillColor=#99FFFF;fillWeight=2;" vertex="1" parent="VRI0krLwx5ahVGxfG7Ba-3">
          <mxGeometry x="98" y="40" width="60" height="40" as="geometry" />
        </mxCell>
        <mxCell id="VRI0krLwx5ahVGxfG7Ba-5" value="程序计数器" style="rounded=0;whiteSpace=wrap;html=1;shadow=0;sketch=1;fontColor=#000033;strokeColor=#0F0F4D;fillColor=#99FFFF;strokeWidth=1;perimeterSpacing=5;fillStyle=auto;glass=0;curveFitting=0.95;fillWeight=2;" vertex="1" parent="VRI0krLwx5ahVGxfG7Ba-3">
          <mxGeometry x="175" y="40" width="80" height="40" as="geometry" />
        </mxCell>
        <mxCell id="VRI0krLwx5ahVGxfG7Ba-6" value="ALU" style="rounded=0;whiteSpace=wrap;html=1;shadow=0;sketch=1;fontColor=#000033;strokeColor=#0F0F4D;fillColor=#99FFFF;gradientColor=none;fillWeight=2;" vertex="1" parent="VRI0krLwx5ahVGxfG7Ba-3">
          <mxGeometry x="10" y="40" width="70" height="40" as="geometry" />
        </mxCell>
        <mxCell id="VRI0krLwx5ahVGxfG7Ba-7" value="MMU" style="rounded=1;whiteSpace=wrap;html=1;shadow=0;sketch=1;fontColor=#000033;fillColor=#99FFFF;gradientColor=none;strokeColor=#0000FF;fillWeight=2;" vertex="1" parent="VRI0krLwx5ahVGxfG7Ba-3">
          <mxGeometry x="101" y="110" width="60" height="40" as="geometry" />
        </mxCell>
        <mxCell id="VRI0krLwx5ahVGxfG7Ba-8" style="edgeStyle=orthogonalEdgeStyle;curved=0;rounded=1;sketch=1;orthogonalLoop=1;jettySize=auto;html=1;entryX=0.454;entryY=-0.023;entryDx=0;entryDy=0;entryPerimeter=0;shadow=0;fontColor=#000033;strokeColor=#FF0000;" edge="1" parent="VRI0krLwx5ahVGxfG7Ba-3" source="VRI0krLwx5ahVGxfG7Ba-4" target="VRI0krLwx5ahVGxfG7Ba-7">
          <mxGeometry relative="1" as="geometry" />
        </mxCell>
        <mxCell id="VRI0krLwx5ahVGxfG7Ba-9" value="TLB缓存" style="rounded=1;whiteSpace=wrap;html=1;shadow=0;sketch=1;fontColor=#000033;strokeColor=#0F0F4D;fillColor=#99FFFF;gradientColor=none;fillWeight=2;" vertex="1" parent="VRI0krLwx5ahVGxfG7Ba-3">
          <mxGeometry x="181" y="180" width="68" height="40" as="geometry" />
        </mxCell>
        <mxCell id="VRI0krLwx5ahVGxfG7Ba-10" style="edgeStyle=orthogonalEdgeStyle;curved=0;rounded=1;sketch=1;orthogonalLoop=1;jettySize=auto;html=1;shadow=0;fontColor=#000033;strokeColor=#FF0000;" edge="1" parent="VRI0krLwx5ahVGxfG7Ba-3" source="VRI0krLwx5ahVGxfG7Ba-7" target="VRI0krLwx5ahVGxfG7Ba-9">
          <mxGeometry relative="1" as="geometry" />
        </mxCell>
        <mxCell id="VRI0krLwx5ahVGxfG7Ba-11" value="统一高速缓存&lt;br&gt;（L2）" style="rounded=1;whiteSpace=wrap;html=1;shadow=0;sketch=1;fontColor=#000033;strokeColor=#0F0F4D;fillColor=#99FFFF;gradientColor=none;fillWeight=2;" vertex="1" parent="VRI0krLwx5ahVGxfG7Ba-3">
          <mxGeometry x="11" y="260" width="150" height="40" as="geometry" />
        </mxCell>
        <mxCell id="VRI0krLwx5ahVGxfG7Ba-12" style="edgeStyle=orthogonalEdgeStyle;curved=0;rounded=1;sketch=1;orthogonalLoop=1;jettySize=auto;html=1;exitX=0.5;exitY=1;exitDx=0;exitDy=0;entryX=0.48;entryY=-0.046;entryDx=0;entryDy=0;entryPerimeter=0;shadow=0;fontColor=#000033;strokeColor=#FF0000;" edge="1" parent="VRI0krLwx5ahVGxfG7Ba-3" source="VRI0krLwx5ahVGxfG7Ba-13" target="VRI0krLwx5ahVGxfG7Ba-11">
          <mxGeometry relative="1" as="geometry" />
        </mxCell>
        <mxCell id="VRI0krLwx5ahVGxfG7Ba-13" value="I-Cache&lt;br&gt;(L1)" style="rounded=0;whiteSpace=wrap;html=1;shadow=0;sketch=1;fontColor=#000033;strokeColor=#0F0F4D;fillColor=#99FFFF;gradientColor=none;fillWeight=2;" vertex="1" parent="VRI0krLwx5ahVGxfG7Ba-3">
          <mxGeometry x="10" y="180" width="70" height="40" as="geometry" />
        </mxCell>
        <mxCell id="VRI0krLwx5ahVGxfG7Ba-14" style="edgeStyle=orthogonalEdgeStyle;curved=0;rounded=1;sketch=1;orthogonalLoop=1;jettySize=auto;html=1;shadow=0;fontColor=#000033;strokeColor=#6666FF;" edge="1" parent="VRI0krLwx5ahVGxfG7Ba-3" source="VRI0krLwx5ahVGxfG7Ba-7" target="VRI0krLwx5ahVGxfG7Ba-13">
          <mxGeometry relative="1" as="geometry" />
        </mxCell>
        <mxCell id="VRI0krLwx5ahVGxfG7Ba-15" style="edgeStyle=orthogonalEdgeStyle;curved=0;rounded=1;sketch=1;orthogonalLoop=1;jettySize=auto;html=1;entryX=0.559;entryY=-0.015;entryDx=0;entryDy=0;entryPerimeter=0;shadow=0;fontColor=#000033;strokeColor=#FF0000;" edge="1" parent="VRI0krLwx5ahVGxfG7Ba-3" source="VRI0krLwx5ahVGxfG7Ba-16" target="VRI0krLwx5ahVGxfG7Ba-11">
          <mxGeometry relative="1" as="geometry" />
        </mxCell>
        <mxCell id="VRI0krLwx5ahVGxfG7Ba-16" value="D-Cache&lt;br&gt;(L1)" style="rounded=0;whiteSpace=wrap;html=1;shadow=0;sketch=1;fontColor=#000033;strokeColor=#0F0F4D;fillColor=#99FFFF;gradientColor=none;fillWeight=2;" vertex="1" parent="VRI0krLwx5ahVGxfG7Ba-3">
          <mxGeometry x="98" y="180" width="66" height="40" as="geometry" />
        </mxCell>
        <mxCell id="VRI0krLwx5ahVGxfG7Ba-17" style="edgeStyle=orthogonalEdgeStyle;curved=0;rounded=1;sketch=1;orthogonalLoop=1;jettySize=auto;html=1;entryX=0.5;entryY=0;entryDx=0;entryDy=0;shadow=0;fontColor=#000033;strokeColor=#6666FF;" edge="1" parent="VRI0krLwx5ahVGxfG7Ba-3" source="VRI0krLwx5ahVGxfG7Ba-7" target="VRI0krLwx5ahVGxfG7Ba-16">
          <mxGeometry relative="1" as="geometry" />
        </mxCell>
        <mxCell id="VRI0krLwx5ahVGxfG7Ba-18" value="核0" style="swimlane;childLayout=stackLayout;horizontal=1;startSize=30;horizontalStack=0;rounded=1;fontSize=14;fontStyle=0;strokeWidth=1;resizeParent=0;resizeLast=1;shadow=0;dashed=1;align=center;glass=0;sketch=0;curveFitting=0.95;fontColor=#000033;swimlaneFillColor=none;gradientColor=#FFF7DE;" vertex="1" parent="VRI0krLwx5ahVGxfG7Ba-3">
          <mxGeometry width="260" height="310" as="geometry">
            <mxRectangle x="170" y="490" width="50" height="30" as="alternateBounds" />
          </mxGeometry>
        </mxCell>
        <mxCell id="VRI0krLwx5ahVGxfG7Ba-19" value="统一高速缓存&lt;br&gt;（L2）" style="rounded=1;whiteSpace=wrap;html=1;shadow=0;sketch=1;fontColor=#000033;strokeColor=#0F0F4D;fillColor=#99FFFF;gradientColor=none;fillWeight=2;" vertex="1" parent="VRI0krLwx5ahVGxfG7Ba-3">
          <mxGeometry x="301" y="260" width="150" height="40" as="geometry" />
        </mxCell>
        <mxCell id="VRI0krLwx5ahVGxfG7Ba-20" value="TLB缓存" style="rounded=1;whiteSpace=wrap;html=1;shadow=0;sketch=1;fontColor=#000033;strokeColor=#0F0F4D;fillColor=#99FFFF;gradientColor=none;fillWeight=2;" vertex="1" parent="VRI0krLwx5ahVGxfG7Ba-3">
          <mxGeometry x="471" y="180" width="68" height="40" as="geometry" />
        </mxCell>
        <mxCell id="VRI0krLwx5ahVGxfG7Ba-21" value="D-Cache&lt;br&gt;(L1)" style="rounded=0;whiteSpace=wrap;html=1;shadow=0;sketch=1;fontColor=#000033;strokeColor=#0F0F4D;fillColor=#99FFFF;gradientColor=none;fillWeight=2;" vertex="1" parent="VRI0krLwx5ahVGxfG7Ba-3">
          <mxGeometry x="388" y="180" width="66" height="40" as="geometry" />
        </mxCell>
        <mxCell id="VRI0krLwx5ahVGxfG7Ba-22" value="I-Cache&lt;br&gt;(L1)" style="rounded=0;whiteSpace=wrap;html=1;shadow=0;sketch=1;fontColor=#000033;strokeColor=#0F0F4D;fillColor=#99FFFF;gradientColor=none;fillWeight=2;" vertex="1" parent="VRI0krLwx5ahVGxfG7Ba-3">
          <mxGeometry x="300" y="180" width="70" height="40" as="geometry" />
        </mxCell>
        <mxCell id="VRI0krLwx5ahVGxfG7Ba-23" value="MMU" style="rounded=1;whiteSpace=wrap;html=1;shadow=0;sketch=1;fontColor=#000033;fillColor=#99FFFF;gradientColor=none;strokeColor=#0000FF;fillWeight=2;" vertex="1" parent="VRI0krLwx5ahVGxfG7Ba-3">
          <mxGeometry x="391" y="110" width="60" height="40" as="geometry" />
        </mxCell>
        <mxCell id="VRI0krLwx5ahVGxfG7Ba-24" value="程序计数器" style="rounded=0;whiteSpace=wrap;html=1;shadow=0;sketch=1;fontColor=#000033;strokeColor=#0F0F4D;fillColor=#99FFFF;strokeWidth=1;perimeterSpacing=5;fillStyle=auto;glass=0;curveFitting=0.95;fillWeight=2;" vertex="1" parent="VRI0krLwx5ahVGxfG7Ba-3">
          <mxGeometry x="465" y="40" width="80" height="40" as="geometry" />
        </mxCell>
        <mxCell id="VRI0krLwx5ahVGxfG7Ba-25" value="寄存器" style="rounded=0;whiteSpace=wrap;html=1;shadow=0;sketch=1;strokeColor=#36393d;fillColor=#99FFFF;fillWeight=2;" vertex="1" parent="VRI0krLwx5ahVGxfG7Ba-3">
          <mxGeometry x="388" y="40" width="60" height="40" as="geometry" />
        </mxCell>
        <mxCell id="VRI0krLwx5ahVGxfG7Ba-26" value="ALU" style="rounded=0;whiteSpace=wrap;html=1;shadow=0;sketch=1;fontColor=#000033;strokeColor=#0F0F4D;fillColor=#99FFFF;gradientColor=none;fillWeight=2;" vertex="1" parent="VRI0krLwx5ahVGxfG7Ba-3">
          <mxGeometry x="300" y="40" width="70" height="40" as="geometry" />
        </mxCell>
        <mxCell id="VRI0krLwx5ahVGxfG7Ba-27" value="MMU" style="rounded=1;whiteSpace=wrap;html=1;shadow=0;sketch=1;fontColor=#000033;fillColor=#99FFFF;gradientColor=none;strokeColor=#0000FF;" vertex="1" parent="VRI0krLwx5ahVGxfG7Ba-3">
          <mxGeometry x="391" y="110" width="60" height="40" as="geometry" />
        </mxCell>
        <mxCell id="VRI0krLwx5ahVGxfG7Ba-28" value="" style="group" vertex="1" connectable="0" parent="VRI0krLwx5ahVGxfG7Ba-3">
          <mxGeometry width="545" height="310" as="geometry" />
        </mxCell>
        <mxCell id="VRI0krLwx5ahVGxfG7Ba-29" value="寄存器" style="rounded=0;whiteSpace=wrap;html=1;shadow=0;sketch=1;strokeColor=#36393d;fillColor=#cce5ff;fillWeight=2;disableMultiStroke=1;" vertex="1" parent="VRI0krLwx5ahVGxfG7Ba-28">
          <mxGeometry x="98" y="40" width="60" height="40" as="geometry" />
        </mxCell>
        <mxCell id="VRI0krLwx5ahVGxfG7Ba-30" value="程序计数器" style="rounded=0;whiteSpace=wrap;html=1;shadow=0;sketch=1;strokeColor=#36393d;fillColor=#cce5ff;strokeWidth=1;perimeterSpacing=5;fillStyle=auto;glass=0;curveFitting=0.95;fillWeight=2;disableMultiStroke=1;" vertex="1" parent="VRI0krLwx5ahVGxfG7Ba-28">
          <mxGeometry x="175" y="40" width="80" height="40" as="geometry" />
        </mxCell>
        <mxCell id="VRI0krLwx5ahVGxfG7Ba-31" value="ALU" style="rounded=0;whiteSpace=wrap;html=1;shadow=0;sketch=1;strokeColor=#36393d;fillColor=#cce5ff;fillWeight=2;disableMultiStroke=1;" vertex="1" parent="VRI0krLwx5ahVGxfG7Ba-28">
          <mxGeometry x="10" y="40" width="70" height="40" as="geometry" />
        </mxCell>
        <mxCell id="VRI0krLwx5ahVGxfG7Ba-32" value="MMU" style="rounded=1;whiteSpace=wrap;html=1;shadow=0;sketch=1;fontColor=#000033;gradientColor=none;strokeColor=#0000FF;fillWeight=10;fillColor=#FFFF33;" vertex="1" parent="VRI0krLwx5ahVGxfG7Ba-28">
          <mxGeometry x="101" y="110" width="60" height="40" as="geometry" />
        </mxCell>
        <mxCell id="VRI0krLwx5ahVGxfG7Ba-33" style="edgeStyle=orthogonalEdgeStyle;curved=0;rounded=1;sketch=1;orthogonalLoop=1;jettySize=auto;html=1;entryX=0.454;entryY=-0.023;entryDx=0;entryDy=0;entryPerimeter=0;shadow=0;fontColor=#000033;strokeColor=#FF0000;" edge="1" parent="VRI0krLwx5ahVGxfG7Ba-28" source="VRI0krLwx5ahVGxfG7Ba-29" target="VRI0krLwx5ahVGxfG7Ba-32">
          <mxGeometry relative="1" as="geometry" />
        </mxCell>
        <mxCell id="VRI0krLwx5ahVGxfG7Ba-34" value="TLB缓存" style="rounded=1;whiteSpace=wrap;html=1;shadow=0;sketch=1;fontColor=#000033;strokeColor=#0F0F4D;fillColor=#99FFFF;gradientColor=none;fillWeight=2;" vertex="1" parent="VRI0krLwx5ahVGxfG7Ba-28">
          <mxGeometry x="181" y="180" width="68" height="40" as="geometry" />
        </mxCell>
        <mxCell id="VRI0krLwx5ahVGxfG7Ba-35" style="edgeStyle=orthogonalEdgeStyle;curved=0;rounded=1;sketch=1;orthogonalLoop=1;jettySize=auto;html=1;shadow=0;fontColor=#000033;strokeColor=#FF0000;" edge="1" parent="VRI0krLwx5ahVGxfG7Ba-28" source="VRI0krLwx5ahVGxfG7Ba-32" target="VRI0krLwx5ahVGxfG7Ba-34">
          <mxGeometry relative="1" as="geometry" />
        </mxCell>
        <mxCell id="VRI0krLwx5ahVGxfG7Ba-36" value="统一高速缓存&lt;br&gt;（L2）" style="rounded=1;whiteSpace=wrap;html=1;shadow=0;sketch=1;strokeColor=#6c8ebf;fillWeight=10;fillColor=#dae8fc;strokeOpacity=50;fillOpacity=100;noLabel=0;disableMultiStroke=1;disableMultiStrokeFill=0;" vertex="1" parent="VRI0krLwx5ahVGxfG7Ba-28">
          <mxGeometry x="11" y="260" width="150" height="40" as="geometry" />
        </mxCell>
        <mxCell id="VRI0krLwx5ahVGxfG7Ba-37" style="edgeStyle=orthogonalEdgeStyle;curved=0;rounded=1;sketch=1;orthogonalLoop=1;jettySize=auto;html=1;exitX=0.5;exitY=1;exitDx=0;exitDy=0;entryX=0.48;entryY=-0.046;entryDx=0;entryDy=0;entryPerimeter=0;shadow=0;fontColor=#000033;strokeColor=#FF0000;" edge="1" parent="VRI0krLwx5ahVGxfG7Ba-28" source="VRI0krLwx5ahVGxfG7Ba-38" target="VRI0krLwx5ahVGxfG7Ba-36">
          <mxGeometry relative="1" as="geometry" />
        </mxCell>
        <mxCell id="VRI0krLwx5ahVGxfG7Ba-38" value="I-Cache&lt;br&gt;(L1)" style="rounded=0;whiteSpace=wrap;html=1;shadow=0;sketch=1;fillWeight=10;strokeColor=#d6b656;curveFitting=0.95;fillColor=#FFFF99;hachureGap=5;" vertex="1" parent="VRI0krLwx5ahVGxfG7Ba-28">
          <mxGeometry x="10" y="180" width="70" height="40" as="geometry" />
        </mxCell>
        <mxCell id="VRI0krLwx5ahVGxfG7Ba-39" style="edgeStyle=orthogonalEdgeStyle;curved=0;rounded=1;sketch=1;orthogonalLoop=1;jettySize=auto;html=1;shadow=0;fontColor=#000033;strokeColor=#6666FF;" edge="1" parent="VRI0krLwx5ahVGxfG7Ba-28" source="VRI0krLwx5ahVGxfG7Ba-32" target="VRI0krLwx5ahVGxfG7Ba-38">
          <mxGeometry relative="1" as="geometry" />
        </mxCell>
        <mxCell id="VRI0krLwx5ahVGxfG7Ba-40" style="edgeStyle=orthogonalEdgeStyle;curved=0;rounded=1;sketch=1;orthogonalLoop=1;jettySize=auto;html=1;entryX=0.559;entryY=-0.015;entryDx=0;entryDy=0;entryPerimeter=0;shadow=0;fontColor=#000033;strokeColor=#FF0000;" edge="1" parent="VRI0krLwx5ahVGxfG7Ba-28" source="VRI0krLwx5ahVGxfG7Ba-41" target="VRI0krLwx5ahVGxfG7Ba-36">
          <mxGeometry relative="1" as="geometry" />
        </mxCell>
        <mxCell id="VRI0krLwx5ahVGxfG7Ba-41" value="D-Cache&lt;br&gt;(L1)" style="rounded=0;whiteSpace=wrap;html=1;shadow=0;sketch=1;fillWeight=10;strokeColor=#d6b656;curveFitting=0.95;fillColor=#FFFF99;hachureGap=5;" vertex="1" parent="VRI0krLwx5ahVGxfG7Ba-28">
          <mxGeometry x="98" y="180" width="66" height="40" as="geometry" />
        </mxCell>
        <mxCell id="VRI0krLwx5ahVGxfG7Ba-42" style="edgeStyle=orthogonalEdgeStyle;curved=0;rounded=1;sketch=1;orthogonalLoop=1;jettySize=auto;html=1;entryX=0.5;entryY=0;entryDx=0;entryDy=0;shadow=0;fontColor=#000033;strokeColor=#6666FF;" edge="1" parent="VRI0krLwx5ahVGxfG7Ba-28" source="VRI0krLwx5ahVGxfG7Ba-32" target="VRI0krLwx5ahVGxfG7Ba-41">
          <mxGeometry relative="1" as="geometry" />
        </mxCell>
        <mxCell id="VRI0krLwx5ahVGxfG7Ba-43" value="核0" style="swimlane;childLayout=stackLayout;horizontal=1;startSize=30;horizontalStack=0;rounded=1;fontSize=14;fontStyle=0;strokeWidth=1;resizeParent=0;resizeLast=1;shadow=0;dashed=1;align=center;glass=0;sketch=0;curveFitting=0.95;fontColor=#000033;swimlaneFillColor=none;gradientColor=#FFF7DE;" vertex="1" parent="VRI0krLwx5ahVGxfG7Ba-28">
          <mxGeometry width="260" height="310" as="geometry">
            <mxRectangle x="170" y="490" width="50" height="30" as="alternateBounds" />
          </mxGeometry>
        </mxCell>
        <mxCell id="VRI0krLwx5ahVGxfG7Ba-44" value="统一高速缓存&lt;br&gt;（L2）" style="rounded=1;whiteSpace=wrap;html=1;shadow=0;sketch=1;fontColor=#000033;strokeColor=#0F0F4D;fillColor=#99FFFF;gradientColor=none;fillWeight=2;" vertex="1" parent="VRI0krLwx5ahVGxfG7Ba-28">
          <mxGeometry x="301" y="260" width="150" height="40" as="geometry" />
        </mxCell>
        <mxCell id="VRI0krLwx5ahVGxfG7Ba-45" value="TLB缓存" style="rounded=1;whiteSpace=wrap;html=1;shadow=0;sketch=1;fontColor=#000033;strokeColor=#0F0F4D;fillColor=#99FFFF;gradientColor=none;fillWeight=2;" vertex="1" parent="VRI0krLwx5ahVGxfG7Ba-28">
          <mxGeometry x="471" y="180" width="68" height="40" as="geometry" />
        </mxCell>
        <mxCell id="VRI0krLwx5ahVGxfG7Ba-46" value="D-Cache&lt;br&gt;(L1)" style="rounded=0;whiteSpace=wrap;html=1;shadow=0;sketch=1;fontColor=#000033;strokeColor=#0F0F4D;fillColor=#99FFFF;gradientColor=none;fillWeight=2;" vertex="1" parent="VRI0krLwx5ahVGxfG7Ba-28">
          <mxGeometry x="388" y="180" width="66" height="40" as="geometry" />
        </mxCell>
        <mxCell id="VRI0krLwx5ahVGxfG7Ba-47" value="I-Cache&lt;br&gt;(L1)" style="rounded=0;whiteSpace=wrap;html=1;shadow=0;sketch=1;fontColor=#000033;strokeColor=#0F0F4D;fillColor=#99FFFF;gradientColor=none;fillWeight=2;" vertex="1" parent="VRI0krLwx5ahVGxfG7Ba-28">
          <mxGeometry x="300" y="180" width="70" height="40" as="geometry" />
        </mxCell>
        <mxCell id="VRI0krLwx5ahVGxfG7Ba-48" value="MMU" style="rounded=1;whiteSpace=wrap;html=1;shadow=0;sketch=1;fontColor=#000033;fillColor=#99FFFF;gradientColor=none;strokeColor=#0000FF;fillWeight=2;" vertex="1" parent="VRI0krLwx5ahVGxfG7Ba-28">
          <mxGeometry x="391" y="110" width="60" height="40" as="geometry" />
        </mxCell>
        <mxCell id="VRI0krLwx5ahVGxfG7Ba-49" value="程序计数器" style="rounded=0;whiteSpace=wrap;html=1;shadow=0;sketch=1;fontColor=#000033;strokeColor=#0F0F4D;fillColor=#99FFFF;strokeWidth=1;perimeterSpacing=5;fillStyle=auto;glass=0;curveFitting=0.95;fillWeight=2;" vertex="1" parent="VRI0krLwx5ahVGxfG7Ba-28">
          <mxGeometry x="465" y="40" width="80" height="40" as="geometry" />
        </mxCell>
        <mxCell id="VRI0krLwx5ahVGxfG7Ba-50" value="寄存器" style="rounded=0;whiteSpace=wrap;html=1;shadow=0;sketch=1;strokeColor=#36393d;fillColor=#99FFFF;fillWeight=2;" vertex="1" parent="VRI0krLwx5ahVGxfG7Ba-28">
          <mxGeometry x="388" y="40" width="60" height="40" as="geometry" />
        </mxCell>
        <mxCell id="VRI0krLwx5ahVGxfG7Ba-51" value="ALU" style="rounded=0;whiteSpace=wrap;html=1;shadow=0;sketch=1;fontColor=#000033;strokeColor=#0F0F4D;fillColor=#99FFFF;gradientColor=none;fillWeight=2;" vertex="1" parent="VRI0krLwx5ahVGxfG7Ba-28">
          <mxGeometry x="300" y="40" width="70" height="40" as="geometry" />
        </mxCell>
        <mxCell id="VRI0krLwx5ahVGxfG7Ba-52" value="ALU" style="rounded=0;whiteSpace=wrap;html=1;shadow=0;sketch=1;fillWeight=10;disableMultiStroke=1;strokeColor=#d6b656;curveFitting=0.95;fillColor=#FFFF99;hachureGap=5;" vertex="1" parent="VRI0krLwx5ahVGxfG7Ba-28">
          <mxGeometry x="10" y="40" width="70" height="40" as="geometry" />
        </mxCell>
        <mxCell id="VRI0krLwx5ahVGxfG7Ba-53" value="寄存器" style="rounded=0;whiteSpace=wrap;html=1;shadow=0;sketch=1;fillWeight=10;disableMultiStroke=1;strokeColor=#d6b656;curveFitting=0.95;fillColor=#FFFF99;hachureGap=5;" vertex="1" parent="VRI0krLwx5ahVGxfG7Ba-28">
          <mxGeometry x="98" y="40" width="60" height="40" as="geometry" />
        </mxCell>
        <mxCell id="VRI0krLwx5ahVGxfG7Ba-54" value="程序计数器" style="rounded=0;whiteSpace=wrap;html=1;shadow=0;sketch=1;strokeWidth=1;perimeterSpacing=5;fillStyle=auto;glass=0;curveFitting=0.95;fillWeight=5;disableMultiStroke=1;strokeColor=#d6b656;fillColor=#FFFF99;hachureGap=5;" vertex="1" parent="VRI0krLwx5ahVGxfG7Ba-28">
          <mxGeometry x="175" y="40" width="80" height="40" as="geometry" />
        </mxCell>
        <mxCell id="VRI0krLwx5ahVGxfG7Ba-55" value="TLB缓存" style="rounded=1;whiteSpace=wrap;html=1;shadow=0;sketch=1;fillWeight=10;strokeColor=#d6b656;curveFitting=0.95;fillColor=#FFFF99;hachureGap=5;" vertex="1" parent="VRI0krLwx5ahVGxfG7Ba-28">
          <mxGeometry x="181" y="180" width="68" height="40" as="geometry" />
        </mxCell>
        <mxCell id="VRI0krLwx5ahVGxfG7Ba-56" value="" style="group;sketch=0;shadow=0;" vertex="1" connectable="0" parent="V5bLH1JIqrHtPMcGAUPl-1">
          <mxGeometry x="400" y="350" width="260" height="310" as="geometry" />
        </mxCell>
        <mxCell id="VRI0krLwx5ahVGxfG7Ba-57" value="寄存器" style="rounded=0;whiteSpace=wrap;html=1;shadow=0;sketch=1;strokeColor=#36393d;disableMultiStroke=1;disableMultiStrokeFill=0;fillColor=#CCFF99;fillWeight=11;" vertex="1" parent="VRI0krLwx5ahVGxfG7Ba-56">
          <mxGeometry x="98" y="40" width="60" height="40" as="geometry" />
        </mxCell>
        <mxCell id="VRI0krLwx5ahVGxfG7Ba-58" value="程序计数器" style="rounded=0;whiteSpace=wrap;html=1;shadow=0;sketch=1;fontColor=#000033;strokeColor=#0F0F4D;strokeWidth=1;perimeterSpacing=5;fillStyle=auto;glass=0;curveFitting=0.95;disableMultiStroke=1;disableMultiStrokeFill=0;fillColor=#CCFF99;fillWeight=11;" vertex="1" parent="VRI0krLwx5ahVGxfG7Ba-56">
          <mxGeometry x="175" y="40" width="80" height="40" as="geometry" />
        </mxCell>
        <mxCell id="VRI0krLwx5ahVGxfG7Ba-59" value="ALU" style="rounded=0;whiteSpace=wrap;html=1;shadow=0;sketch=1;fontColor=#000033;strokeColor=#0F0F4D;gradientColor=none;disableMultiStroke=1;disableMultiStrokeFill=0;fillColor=#CCFF99;fillWeight=11;" vertex="1" parent="VRI0krLwx5ahVGxfG7Ba-56">
          <mxGeometry x="10" y="40" width="70" height="40" as="geometry" />
        </mxCell>
        <mxCell id="VRI0krLwx5ahVGxfG7Ba-60" value="MMU" style="rounded=1;whiteSpace=wrap;html=1;shadow=0;sketch=1;fontColor=#000033;gradientColor=none;strokeColor=#0000FF;disableMultiStroke=1;disableMultiStrokeFill=0;fillWeight=11;fillColor=#FFFF33;" vertex="1" parent="VRI0krLwx5ahVGxfG7Ba-56">
          <mxGeometry x="101" y="110" width="60" height="40" as="geometry" />
        </mxCell>
        <mxCell id="VRI0krLwx5ahVGxfG7Ba-61" style="edgeStyle=orthogonalEdgeStyle;curved=0;rounded=1;sketch=1;orthogonalLoop=1;jettySize=auto;html=1;entryX=0.454;entryY=-0.023;entryDx=0;entryDy=0;entryPerimeter=0;shadow=0;fontColor=#000033;strokeColor=#FF0000;" edge="1" parent="VRI0krLwx5ahVGxfG7Ba-56" source="VRI0krLwx5ahVGxfG7Ba-57" target="VRI0krLwx5ahVGxfG7Ba-60">
          <mxGeometry relative="1" as="geometry" />
        </mxCell>
        <mxCell id="VRI0krLwx5ahVGxfG7Ba-62" value="TLB缓存" style="rounded=1;whiteSpace=wrap;html=1;shadow=0;sketch=1;fontColor=#000033;strokeColor=#0F0F4D;gradientColor=none;disableMultiStroke=1;disableMultiStrokeFill=0;fillColor=#CCFF99;fillWeight=11;" vertex="1" parent="VRI0krLwx5ahVGxfG7Ba-56">
          <mxGeometry x="181" y="180" width="68" height="40" as="geometry" />
        </mxCell>
        <mxCell id="VRI0krLwx5ahVGxfG7Ba-63" style="edgeStyle=orthogonalEdgeStyle;curved=0;rounded=1;sketch=1;orthogonalLoop=1;jettySize=auto;html=1;shadow=0;fontColor=#000033;strokeColor=#FF0000;" edge="1" parent="VRI0krLwx5ahVGxfG7Ba-56" source="VRI0krLwx5ahVGxfG7Ba-60" target="VRI0krLwx5ahVGxfG7Ba-62">
          <mxGeometry relative="1" as="geometry" />
        </mxCell>
        <mxCell id="VRI0krLwx5ahVGxfG7Ba-64" value="统一高速缓存&lt;br&gt;（L2）" style="rounded=1;whiteSpace=wrap;html=1;shadow=0;sketch=1;strokeColor=#6c8ebf;disableMultiStroke=1;disableMultiStrokeFill=0;fillColor=#dae8fc;fillWeight=11;" vertex="1" parent="VRI0krLwx5ahVGxfG7Ba-56">
          <mxGeometry x="11" y="260" width="150" height="40" as="geometry" />
        </mxCell>
        <mxCell id="VRI0krLwx5ahVGxfG7Ba-65" style="edgeStyle=orthogonalEdgeStyle;curved=0;rounded=1;sketch=1;orthogonalLoop=1;jettySize=auto;html=1;exitX=0.5;exitY=1;exitDx=0;exitDy=0;entryX=0.48;entryY=-0.046;entryDx=0;entryDy=0;entryPerimeter=0;shadow=0;fontColor=#000033;strokeColor=#FF0000;" edge="1" parent="VRI0krLwx5ahVGxfG7Ba-56" source="VRI0krLwx5ahVGxfG7Ba-66" target="VRI0krLwx5ahVGxfG7Ba-64">
          <mxGeometry relative="1" as="geometry" />
        </mxCell>
        <mxCell id="VRI0krLwx5ahVGxfG7Ba-66" value="I-Cache&lt;br&gt;(L1)" style="rounded=0;whiteSpace=wrap;html=1;shadow=0;sketch=1;fontColor=#000033;strokeColor=#0F0F4D;gradientColor=none;disableMultiStroke=1;disableMultiStrokeFill=0;fillColor=#CCFF99;fillWeight=11;" vertex="1" parent="VRI0krLwx5ahVGxfG7Ba-56">
          <mxGeometry x="10" y="180" width="70" height="40" as="geometry" />
        </mxCell>
        <mxCell id="VRI0krLwx5ahVGxfG7Ba-67" style="edgeStyle=orthogonalEdgeStyle;curved=0;rounded=1;sketch=1;orthogonalLoop=1;jettySize=auto;html=1;shadow=0;fontColor=#000033;strokeColor=#6666FF;" edge="1" parent="VRI0krLwx5ahVGxfG7Ba-56" source="VRI0krLwx5ahVGxfG7Ba-60" target="VRI0krLwx5ahVGxfG7Ba-66">
          <mxGeometry relative="1" as="geometry" />
        </mxCell>
        <mxCell id="VRI0krLwx5ahVGxfG7Ba-68" style="edgeStyle=orthogonalEdgeStyle;curved=0;rounded=1;sketch=1;orthogonalLoop=1;jettySize=auto;html=1;entryX=0.559;entryY=-0.015;entryDx=0;entryDy=0;entryPerimeter=0;shadow=0;fontColor=#000033;strokeColor=#FF0000;" edge="1" parent="VRI0krLwx5ahVGxfG7Ba-56" source="VRI0krLwx5ahVGxfG7Ba-69" target="VRI0krLwx5ahVGxfG7Ba-64">
          <mxGeometry relative="1" as="geometry" />
        </mxCell>
        <mxCell id="VRI0krLwx5ahVGxfG7Ba-69" value="D-Cache&lt;br&gt;(L1)" style="rounded=0;whiteSpace=wrap;html=1;shadow=0;sketch=1;fontColor=#000033;strokeColor=#0F0F4D;gradientColor=none;disableMultiStroke=1;disableMultiStrokeFill=0;fillColor=#CCFF99;fillWeight=11;" vertex="1" parent="VRI0krLwx5ahVGxfG7Ba-56">
          <mxGeometry x="98" y="180" width="66" height="40" as="geometry" />
        </mxCell>
        <mxCell id="VRI0krLwx5ahVGxfG7Ba-70" style="edgeStyle=orthogonalEdgeStyle;curved=0;rounded=1;sketch=1;orthogonalLoop=1;jettySize=auto;html=1;entryX=0.5;entryY=0;entryDx=0;entryDy=0;shadow=0;fontColor=#000033;strokeColor=#6666FF;" edge="1" parent="VRI0krLwx5ahVGxfG7Ba-56" source="VRI0krLwx5ahVGxfG7Ba-60" target="VRI0krLwx5ahVGxfG7Ba-69">
          <mxGeometry relative="1" as="geometry" />
        </mxCell>
        <mxCell id="VRI0krLwx5ahVGxfG7Ba-71" value="核n" style="swimlane;childLayout=stackLayout;horizontal=1;startSize=30;horizontalStack=0;rounded=1;fontSize=14;fontStyle=0;strokeWidth=1;resizeParent=0;resizeLast=1;shadow=0;dashed=1;align=center;glass=0;sketch=0;curveFitting=0.95;fontColor=#000033;swimlaneFillColor=none;gradientColor=#FFF7DE;" vertex="1" parent="VRI0krLwx5ahVGxfG7Ba-56">
          <mxGeometry width="260" height="310" as="geometry">
            <mxRectangle width="50" height="30" as="alternateBounds" />
          </mxGeometry>
        </mxCell>
        <mxCell id="VRI0krLwx5ahVGxfG7Ba-72" style="edgeStyle=orthogonalEdgeStyle;curved=0;rounded=1;sketch=1;orthogonalLoop=1;jettySize=auto;html=1;shadow=0;fontColor=#000033;strokeColor=#6666FF;entryX=0.56;entryY=0.001;entryDx=0;entryDy=0;entryPerimeter=0;" edge="1" parent="V5bLH1JIqrHtPMcGAUPl-1" source="VRI0krLwx5ahVGxfG7Ba-64" target="VRI0krLwx5ahVGxfG7Ba-2">
          <mxGeometry relative="1" as="geometry" />
        </mxCell>
        <mxCell id="VRI0krLwx5ahVGxfG7Ba-73" value="总线接口" style="rounded=1;whiteSpace=wrap;html=1;shadow=0;sketch=1;fillWeight=2;hachureGap=6;hachureAngle=45;jiggle=1;disableMultiStroke=1;disableMultiStrokeFill=0;curveFitting=0.95;expand=1;strokeColor=#10739e;fillColor=#FFD966;" vertex="1" parent="V5bLH1JIqrHtPMcGAUPl-1">
          <mxGeometry x="175" y="800" width="410" height="30" as="geometry" />
        </mxCell>
        <mxCell id="VRI0krLwx5ahVGxfG7Ba-74" value="内存总线" style="edgeStyle=orthogonalEdgeStyle;rounded=0;orthogonalLoop=1;jettySize=auto;html=1;startArrow=classic;startFill=1;endArrow=classic;endFill=1;" edge="1" parent="V5bLH1JIqrHtPMcGAUPl-1" source="VRI0krLwx5ahVGxfG7Ba-76" target="VRI0krLwx5ahVGxfG7Ba-78">
          <mxGeometry relative="1" as="geometry">
            <Array as="points">
              <mxPoint x="800" y="815" />
              <mxPoint x="800" y="815" />
            </Array>
          </mxGeometry>
        </mxCell>
        <mxCell id="VRI0krLwx5ahVGxfG7Ba-75" value="IO总线" style="edgeStyle=orthogonalEdgeStyle;rounded=0;orthogonalLoop=1;jettySize=auto;html=1;exitX=0.5;exitY=1;exitDx=0;exitDy=0;startArrow=classic;startFill=1;endArrow=classic;endFill=1;" edge="1" parent="V5bLH1JIqrHtPMcGAUPl-1" source="VRI0krLwx5ahVGxfG7Ba-76" target="VRI0krLwx5ahVGxfG7Ba-80">
          <mxGeometry relative="1" as="geometry" />
        </mxCell>
        <mxCell id="VRI0krLwx5ahVGxfG7Ba-76" value="IO桥" style="rounded=1;whiteSpace=wrap;html=1;shadow=0;sketch=1;fillWeight=2;hachureGap=-10;hachureAngle=45;jiggle=1;disableMultiStroke=1;disableMultiStrokeFill=0;curveFitting=0.95;fillColor=#FFD966;gradientColor=none;" vertex="1" parent="V5bLH1JIqrHtPMcGAUPl-1">
          <mxGeometry x="670" y="792.5" width="80" height="45" as="geometry" />
        </mxCell>
        <mxCell id="VRI0krLwx5ahVGxfG7Ba-77" value="DMA" style="edgeStyle=orthogonalEdgeStyle;curved=1;sketch=1;disableMultiStroke=1;orthogonalLoop=1;jettySize=auto;html=1;entryX=0.864;entryY=0.008;entryDx=0;entryDy=0;entryPerimeter=0;shadow=0;dashed=1;startArrow=classic;startFill=1;endArrow=classic;endFill=1;exitX=0.5;exitY=1;exitDx=0;exitDy=0;" edge="1" parent="V5bLH1JIqrHtPMcGAUPl-1" source="VRI0krLwx5ahVGxfG7Ba-78" target="VRI0krLwx5ahVGxfG7Ba-80">
          <mxGeometry relative="1" as="geometry" />
        </mxCell>
        <mxCell id="VRI0krLwx5ahVGxfG7Ba-78" value="主存&lt;br&gt;（内存条,如DDR3）" style="whiteSpace=wrap;html=1;rounded=1;shadow=0;sketch=1;fillWeight=10;hachureGap=-10;hachureAngle=45;jiggle=1;disableMultiStroke=1;disableMultiStrokeFill=0;curveFitting=0.95;fillColor=#FFF4C3;" vertex="1" parent="V5bLH1JIqrHtPMcGAUPl-1">
          <mxGeometry x="860" y="792.5" width="120" height="45" as="geometry" />
        </mxCell>
        <mxCell id="VRI0krLwx5ahVGxfG7Ba-79" value="系统总线" style="endArrow=classic;startArrow=classic;html=1;entryX=0;entryY=0.5;entryDx=0;entryDy=0;exitX=1;exitY=0.5;exitDx=0;exitDy=0;" edge="1" parent="V5bLH1JIqrHtPMcGAUPl-1" source="VRI0krLwx5ahVGxfG7Ba-73" target="VRI0krLwx5ahVGxfG7Ba-76">
          <mxGeometry width="50" height="50" relative="1" as="geometry">
            <mxPoint x="590" y="815" as="sourcePoint" />
            <mxPoint x="630" y="920" as="targetPoint" />
          </mxGeometry>
        </mxCell>
        <mxCell id="VRI0krLwx5ahVGxfG7Ba-80" value="IO总线" style="rounded=1;whiteSpace=wrap;html=1;shadow=0;sketch=1;fillWeight=3;hachureGap=6;hachureAngle=45;jiggle=1;disableMultiStroke=1;disableMultiStrokeFill=0;curveFitting=0.95;fillColor=#fad9d5;strokeColor=#ae4132;dashGap=2;" vertex="1" parent="V5bLH1JIqrHtPMcGAUPl-1">
          <mxGeometry x="175" y="910" width="655" height="30" as="geometry" />
        </mxCell>
        <mxCell id="VRI0krLwx5ahVGxfG7Ba-81" style="edgeStyle=orthogonalEdgeStyle;rounded=0;orthogonalLoop=1;jettySize=auto;html=1;entryX=0.81;entryY=1.039;entryDx=0;entryDy=0;entryPerimeter=0;startArrow=classic;startFill=1;endArrow=classic;endFill=1;" edge="1" parent="V5bLH1JIqrHtPMcGAUPl-1" source="VRI0krLwx5ahVGxfG7Ba-82" target="VRI0krLwx5ahVGxfG7Ba-80">
          <mxGeometry relative="1" as="geometry" />
        </mxCell>
        <mxCell id="VRI0krLwx5ahVGxfG7Ba-82" value="" style="shape=image;html=1;verticalAlign=top;verticalLabelPosition=bottom;labelBackgroundColor=#ffffff;imageAspect=0;aspect=fixed;image=https://cdn1.iconfinder.com/data/icons/computer-hardware-glyphs-vol-2/52/storage__ssd__card__device__data__server__hardware-128.png;shadow=0;sketch=0;fillWeight=3;hachureGap=6;hachureAngle=45;jiggle=1;disableMultiStroke=1;disableMultiStrokeFill=0;curveFitting=0.95;fillColor=#FFF4C3;gradientColor=none;" vertex="1" parent="V5bLH1JIqrHtPMcGAUPl-1">
          <mxGeometry x="671" y="1011" width="70" height="70" as="geometry" />
        </mxCell>
        <mxCell id="VRI0krLwx5ahVGxfG7Ba-83" style="edgeStyle=orthogonalEdgeStyle;rounded=0;orthogonalLoop=1;jettySize=auto;html=1;entryX=0.062;entryY=1.086;entryDx=0;entryDy=0;entryPerimeter=0;startArrow=classic;startFill=1;endArrow=classic;endFill=1;" edge="1" parent="V5bLH1JIqrHtPMcGAUPl-1" source="VRI0krLwx5ahVGxfG7Ba-84" target="VRI0krLwx5ahVGxfG7Ba-80">
          <mxGeometry relative="1" as="geometry" />
        </mxCell>
        <mxCell id="VRI0krLwx5ahVGxfG7Ba-84" value="" style="image;html=1;image=img/lib/clip_art/computers/Monitor_128x128.png;shadow=0;sketch=0;fillWeight=3;hachureGap=6;hachureAngle=45;jiggle=1;disableMultiStroke=1;disableMultiStrokeFill=0;curveFitting=0.95;fillColor=#FFF4C3;gradientColor=none;" vertex="1" parent="V5bLH1JIqrHtPMcGAUPl-1">
          <mxGeometry x="175" y="1000" width="80" height="80" as="geometry" />
        </mxCell>
        <mxCell id="VRI0krLwx5ahVGxfG7Ba-85" style="edgeStyle=orthogonalEdgeStyle;rounded=0;orthogonalLoop=1;jettySize=auto;html=1;entryX=0.975;entryY=1.007;entryDx=0;entryDy=0;entryPerimeter=0;startArrow=classic;startFill=1;endArrow=classic;endFill=1;" edge="1" parent="V5bLH1JIqrHtPMcGAUPl-1" source="VRI0krLwx5ahVGxfG7Ba-86" target="VRI0krLwx5ahVGxfG7Ba-80">
          <mxGeometry relative="1" as="geometry" />
        </mxCell>
        <mxCell id="VRI0krLwx5ahVGxfG7Ba-86" value="" style="pointerEvents=1;shadow=0;dashed=0;html=1;strokeColor=none;fillColor=#4495D1;labelPosition=center;verticalLabelPosition=bottom;verticalAlign=top;align=center;outlineConnect=0;shape=mxgraph.veeam.usb;sketch=0;fillWeight=3;hachureGap=6;hachureAngle=45;jiggle=1;disableMultiStroke=1;disableMultiStrokeFill=0;curveFitting=0.95;" vertex="1" parent="V5bLH1JIqrHtPMcGAUPl-1">
          <mxGeometry x="770" y="1052" width="86" height="28" as="geometry" />
        </mxCell>
        <mxCell id="VRI0krLwx5ahVGxfG7Ba-87" style="edgeStyle=orthogonalEdgeStyle;rounded=0;orthogonalLoop=1;jettySize=auto;html=1;entryX=0.206;entryY=1;entryDx=0;entryDy=0;entryPerimeter=0;startArrow=classic;startFill=1;endArrow=classic;endFill=1;" edge="1" parent="V5bLH1JIqrHtPMcGAUPl-1" source="VRI0krLwx5ahVGxfG7Ba-88" target="VRI0krLwx5ahVGxfG7Ba-80">
          <mxGeometry relative="1" as="geometry" />
        </mxCell>
        <mxCell id="VRI0krLwx5ahVGxfG7Ba-88" value="" style="aspect=fixed;pointerEvents=1;shadow=0;dashed=0;html=1;strokeColor=none;labelPosition=center;verticalLabelPosition=bottom;verticalAlign=top;align=center;fillColor=#00188D;shape=mxgraph.mscae.enterprise.mouse;sketch=0;fillWeight=3;hachureGap=6;hachureAngle=45;jiggle=1;disableMultiStroke=1;disableMultiStrokeFill=0;curveFitting=0.95;" vertex="1" parent="V5bLH1JIqrHtPMcGAUPl-1">
          <mxGeometry x="295" y="1031" width="30" height="50" as="geometry" />
        </mxCell>
        <mxCell id="VRI0krLwx5ahVGxfG7Ba-89" style="edgeStyle=orthogonalEdgeStyle;rounded=0;orthogonalLoop=1;jettySize=auto;html=1;entryX=0.621;entryY=1.108;entryDx=0;entryDy=0;entryPerimeter=0;startArrow=classic;startFill=1;endArrow=classic;endFill=1;" edge="1" parent="V5bLH1JIqrHtPMcGAUPl-1" source="VRI0krLwx5ahVGxfG7Ba-90" target="VRI0krLwx5ahVGxfG7Ba-80">
          <mxGeometry relative="1" as="geometry" />
        </mxCell>
        <mxCell id="VRI0krLwx5ahVGxfG7Ba-90" value="" style="aspect=fixed;html=1;points=[];align=center;image;fontSize=12;image=img/lib/azure2/other/Universal_Print.svg;shadow=0;sketch=0;fillWeight=3;hachureGap=6;hachureAngle=45;jiggle=1;disableMultiStroke=1;disableMultiStrokeFill=0;curveFitting=0.95;fillColor=#FFF4C3;gradientColor=none;" vertex="1" parent="V5bLH1JIqrHtPMcGAUPl-1">
          <mxGeometry x="530" y="1000" width="105" height="90" as="geometry" />
        </mxCell>
        <mxCell id="VRI0krLwx5ahVGxfG7Ba-91" style="edgeStyle=orthogonalEdgeStyle;rounded=0;orthogonalLoop=1;jettySize=auto;html=1;entryX=0.39;entryY=0.969;entryDx=0;entryDy=0;entryPerimeter=0;startArrow=classic;startFill=1;endArrow=classic;endFill=1;" edge="1" parent="V5bLH1JIqrHtPMcGAUPl-1" source="VRI0krLwx5ahVGxfG7Ba-92" target="VRI0krLwx5ahVGxfG7Ba-80">
          <mxGeometry relative="1" as="geometry" />
        </mxCell>
        <mxCell id="VRI0krLwx5ahVGxfG7Ba-92" value="" style="verticalLabelPosition=bottom;verticalAlign=top;html=1;shadow=0;dashed=0;strokeWidth=1;shape=mxgraph.android.keyboard;sketch=0;fillWeight=3;hachureGap=6;hachureAngle=45;jiggle=1;disableMultiStroke=1;disableMultiStrokeFill=0;curveFitting=0.95;fillColor=#FFF4C3;gradientColor=none;" vertex="1" parent="V5bLH1JIqrHtPMcGAUPl-1">
          <mxGeometry x="370" y="1010" width="122" height="70" as="geometry" />
        </mxCell>
        <mxCell id="VRI0krLwx5ahVGxfG7Ba-93" style="edgeStyle=orthogonalEdgeStyle;orthogonalLoop=1;jettySize=auto;html=1;entryX=0.5;entryY=0;entryDx=0;entryDy=0;startArrow=classic;startFill=1;endArrow=classic;endFill=1;dashed=1;sketch=1;shadow=0;curved=1;disableMultiStroke=1;" edge="1" parent="V5bLH1JIqrHtPMcGAUPl-1" target="VRI0krLwx5ahVGxfG7Ba-78">
          <mxGeometry relative="1" as="geometry">
            <mxPoint x="650" y="550" as="sourcePoint" />
          </mxGeometry>
        </mxCell>
        <mxCell id="VRI0krLwx5ahVGxfG7Ba-94" value="页表查询" style="edgeLabel;html=1;align=center;verticalAlign=middle;resizable=0;points=[];" vertex="1" connectable="0" parent="VRI0krLwx5ahVGxfG7Ba-93">
          <mxGeometry x="0.4041" relative="1" as="geometry">
            <mxPoint as="offset" />
          </mxGeometry>
        </mxCell>
      </root>
    </mxGraphModel>
  </diagram>
</mxfile>
